<svg height="512pt" viewBox="0 0 512.16043 512" width="512pt" xmlns="http://www.w3.org/2000/svg"><path d="m501.121094 9.414062c-13.65625-13.441406-40.535156-11.945312-59.949219 3.625-11.730469 9.386719-15.144531 21.761719-17.707031 31.789063-1.277344 5.121094-2.558594 9.8125-4.691406 11.945313-3.199219 3.414062-7.894532 7.253906-13.867188 11.09375-2.558594 1.707031-4.480469 4.480468-4.691406 7.679687-.429688 3.199219.636718 6.402344 2.984375 8.535156 1.921875 2.132813 4.054687 4.265625 5.761719 6.398438.210937.425781.640624.640625.851562 1.066406l11.949219 11.734375c2.984375 2.347656 5.757812 4.90625 8.53125 7.894531 1.921875 2.132813 4.695312 3.199219 7.679687 3.199219h.214844c2.984375 0 5.757812-1.28125 7.679688-3.628906 19.839843-22.398438 45.226562-51.199219 53.332031-61.4375 13.652343-17.28125 10.027343-32 1.921875-39.894532zm0 0" fill="#6d4c41"/><path d="m436.691406 333.46875-67.410156-47.363281c-55.894531-39.25-104.109375-87.464844-143.359375-143.359375l-47.363281-67.414063c-3.199219-4.691406-9.597656-5.757812-14.503906-2.769531-63.363282 40.957031-164.054688 150.183594-164.054688 268.796875 0 33.921875 3.839844 59.734375 11.734375 76.589844 5.332031 11.519531 7.253906 22.824219 5.332031 33.492187l-1.28125 8.105469c-1.707031 10.242187 1.707032 20.695313 8.960938 27.945313 7.253906 7.253906 17.707031 10.667968 27.945312 8.960937l8.109375-1.277344c10.453125-1.707031 21.757813 0 33.492188 5.332031 16.640625 7.679688 42.453125 11.519532 76.375 11.519532 118.613281 0 227.839843-100.695313 268.796875-164.054688 3.203125-4.90625 1.921875-11.304687-2.773438-14.503906zm0 0" fill="#ffb74d"/><path d="m497.066406 182.640625c-19.199218-46.507813-40.105468-78.933594-61.441406-95.359375l-10.023438-9.8125c-17.28125-22.1875-49.707031-43.09375-96.214843-62.292969-48.425781-20.054687-102.1875-20.054687-151.679688-.429687-13.226562 5.121094-22.828125 16-26.667969 29.65625-3.839843 13.652344-1.066406 27.945312 7.253907 39.039062l50.132812 71.679688c40.746094 58.027344 90.667969 107.945312 148.695313 148.691406l71.464844 50.136719c7.894531 5.757812 17.28125 8.746093 26.667968 8.746093 4.054688 0 8.320313-.640624 12.371094-1.707031 13.65625-3.839843 24.535156-13.65625 29.65625-26.667969 19.839844-49.28125 19.625-103.253906-.214844-151.679687zm0 0" fill="#795548"/><path d="m437.761719 114.160156c-2.773438 0-5.546875-1.066406-7.683594-3.199218-2.769531-2.773438-5.542969-5.546876-8.53125-7.894532l-11.945313-11.519531c-.214843-.214844-.640624-.640625-.855468-1.066406-1.707032-2.132813-3.625-4.265625-5.757813-6.398438-2.136719-2.347656-3.203125-5.335937-2.988281-8.535156.425781-3.199219 2.132812-5.972656 4.691406-7.679687 5.976563-4.054688 10.667969-7.679688 13.867188-11.09375 1.921875-2.132813 3.203125-6.824219 4.695312-11.945313 2.558594-10.027344 5.972656-22.1875 17.707032-31.789063 19.414062-15.570312 46.292968-17.066406 59.945312-3.625 7.894531 7.894532 11.519531 22.613282-2.132812 39.894532-8.105469 10.238281-33.492188 39.039062-53.332032 61.4375-1.921875 2.132812-4.695312 3.628906-7.679687 3.628906.210937-.214844 0-.214844 0-.214844zm-11.09375-35.839844 8.957031 8.960938c.429688.425781.855469.640625 1.496094 1.066406 24.105468-27.308594 39.679687-45.226562 45.226562-52.265625 1.066406-1.496093 6.613282-8.75 3.839844-11.519531-3.839844-3.84375-18.347656-5.335938-31.574219 5.332031-6.398437 5.121094-8.320312 12.585938-10.453125 20.691407-1.921875 7.46875-4.054687 15.148437-9.8125 21.121093-2.132812 1.921875-4.695312 4.265625-7.679687 6.613281zm0 0"/><path d="m170.667969 512.027344c-33.921875 0-59.734375-3.839844-76.375-11.734375-11.734375-5.332031-22.828125-7.253907-33.492188-5.332031l-8.109375 1.28125c-10.238281 1.707031-20.476562-1.707032-27.945312-8.960938-7.253906-7.253906-10.667969-17.707031-8.960938-27.949219l1.28125-8.105469c1.707032-10.664062 0-21.757812-5.332031-33.492187-7.894531-16.640625-11.734375-42.453125-11.734375-76.375 0-118.613281 100.691406-227.839844 164.054688-268.796875 4.90625-2.988281 11.304687-1.921875 14.503906 2.769531l47.363281 67.414063c39.25 55.894531 87.464844 104.109375 143.359375 143.359375l67.410156 47.363281c4.695313 3.199219 5.976563 9.8125 2.773438 14.503906-40.957032 63.359375-150.183594 164.054688-268.796875 164.054688zm-102.1875-39.039063c11.304687 0 23.039062 2.773438 34.558593 8.105469 9.601563 4.265625 29.226563 9.601562 67.628907 9.601562 108.160156 0 207.359375-93.226562 245.117187-145.921874l-58.664062-41.171876c-58.027344-40.746093-107.949219-90.667968-148.695313-148.695312l-41.171875-58.664062c-52.695312 37.757812-145.921875 136.957031-145.921875 245.117187 0 38.402344 5.335938 58.027344 9.601563 67.628906 7.039062 15.359375 9.601562 31.144531 7.039062 45.867188l-1.28125 8.105469c-.636718 3.414062.429688 6.828124 2.988282 9.386718 2.347656 2.558594 5.761718 3.625 9.171874 2.984375l8.109376-1.277343c4.050781-.855469 7.679687-1.066407 11.519531-1.066407zm0 0"/><path d="m53.332031 352.027344c-5.972656 0-10.664062-4.695313-10.664062-10.667969 0-42.027344 16.425781-88.53125 47.570312-133.972656 3.414063-4.90625 10.027344-6.1875 14.933594-2.773438 4.90625 3.414063 6.1875 10.027344 2.773437 14.933594-28.796874 41.8125-43.945312 84.054687-43.945312 121.8125 0 5.972656-4.691406 10.667969-10.667969 10.667969zm0 0"/><path d="m455.253906 362.695312c-9.601562 0-18.988281-2.988281-26.878906-8.960937l-71.46875-50.132813c-58.027344-40.746093-107.945312-90.667968-148.691406-148.695312l-49.921875-71.464844c-8.320313-11.09375-11.09375-25.386718-7.253907-39.039062 3.839844-13.65625 13.652344-24.535156 26.667969-29.65625 49.28125-19.625 103.253907-19.625 151.679688.429687 46.507812 19.199219 78.933593 40.105469 96.214843 62.292969l10.023438 9.8125c21.121094 16.425781 42.242188 48.851562 61.441406 95.359375 20.054688 48.425781 20.054688 102.1875.425782 151.679687-5.332032 13.226563-16 22.828126-29.652344 26.667969-4.265625 1.066407-8.320313 1.707031-12.585938 1.707031zm-201.8125-341.335937c-22.828125 0-45.867187 4.269531-67.839844 13.015625-7.042968 2.773438-12.160156 8.53125-14.082031 15.785156-1.917969 7.253906-.640625 14.71875 3.839844 20.695313l50.347656 71.890625c39.253907 55.894531 87.464844 104.109375 143.359375 143.359375l71.679688 50.136719s.214844.210937.214844.210937c5.972656 4.480469 13.652343 5.972656 20.691406 3.839844 7.253906-1.917969 13.015625-7.039063 15.789062-14.078125 17.707032-44.160156 17.492188-92.375-.214844-135.46875-17.492187-42.453125-36.90625-72.746094-55.679687-87.679688l-11.945313-11.519531c-15.789062-19.839844-46.082031-39.253906-88.535156-56.746094-21.546875-8.960937-44.585937-13.441406-67.625-13.441406zm0 0"/><path d="m288 106.695312c-.425781 0-1.066406 0-1.492188 0-5.761718-.855468-9.816406-6.402343-9.175781-12.160156.640625-4.695312-2.132812-11.09375-7.253906-17.066406-6.824219-8.109375-16.851563-13.441406-24.746094-13.441406-5.972656 0-10.664062-4.695313-10.664062-10.667969s4.691406-10.664063 10.664062-10.664063c14.082031 0 29.867188 7.890626 40.960938 20.90625 9.386719 10.664063 13.652343 23.039063 12.160156 33.917969-.640625 5.335938-5.121094 9.175781-10.453125 9.175781zm0 0"/><path d="m394.453125 170.695312c-.425781 0-1.066406 0-1.492187 0-5.761719-.855468-9.8125-6.402343-8.960938-12.160156.640625-4.695312-2.132812-11.09375-7.253906-17.066406-7.039063-8.109375-17.066406-13.441406-24.960938-13.441406-5.972656 0-10.664062-4.695313-10.664062-10.667969s4.691406-10.664063 10.664062-10.664063c14.082032 0 29.867188 7.890626 40.960938 20.90625 9.386718 10.664063 13.652344 23.039063 12.160156 33.917969-.640625 5.335938-5.121094 9.175781-10.453125 9.175781zm0 0"/><path d="m437.121094 277.359375c-.429688 0-1.066406 0-1.496094 0-5.757812-.851563-9.8125-6.183594-8.957031-12.160156.640625-4.691407-2.132813-11.09375-7.253907-17.066407-7.039062-8.105468-17.066406-13.4375-24.960937-13.4375-5.972656 0-10.667969-4.695312-10.667969-10.667968s4.695313-10.667969 10.667969-10.667969c14.082031 0 29.867187 7.894531 40.960937 20.90625 9.386719 10.667969 13.652344 23.042969 12.160157 33.921875-.640625 5.332031-5.121094 9.171875-10.453125 9.171875zm0 0"/></svg>