<svg id="Layer_1" height="512" viewBox="0 0 512 512" width="512" xmlns="http://www.w3.org/2000/svg" data-name="Layer 1"><path d="m407.96 72.97c42.56 52.72 118.86 204.3 84.31 304.92-23.57 68.66-67.83 79.42-109.51 70.38-32.38-7.02-22.04-28.56-41.23-53.27s-67.91-52.6-67.45-85.71c1.38-99.68 54-201.71 84.43-237.13a32.19 32.19 0 0 1 49.45.81z" fill="#ed8c4a"/><path d="m239.69 182.64c17.65 98.12-14.56 208.3-37.67 248.87a32.2 32.2 0 0 1 -48.7 8.63c-51.83-43.64-155.63-177.91-140.9-283.27 10.04-71.89 51.44-90.89 94.08-89.96 33.12.73 27.09 23.84 50.64 44.44s76.69 38.7 82.55 71.29z" fill="#ed8c4a"/><path d="m183.32 440.14c-51.83-43.64-155.63-177.91-140.9-283.27 8.469-60.64 39.251-83.648 74.269-88.806a50.913 50.913 0 0 0 -10.189-1.154c-42.64-.93-84.04 18.07-94.08 89.96-14.73 105.36 89.07 239.63 140.9 283.27a32.227 32.227 0 0 0 35.766 3.879 32.471 32.471 0 0 1 -5.766-3.879z" fill="#bf7847"/><g fill="#264160"><path d="m412.63 69.2a38.146 38.146 0 0 0 -29.177-14.217c-.2 0-.393 0-.59 0a38 38 0 0 0 -28.906 13.271c-33.833 39.388-84.524 143.208-85.879 240.956-.349 25.212 23.447 46.573 44.443 65.419 9.481 8.511 18.437 16.55 24.265 24.055 6.556 8.442 9.311 16.37 11.975 24.037 4.7 13.527 9.14 26.305 32.726 31.419a120.231 120.231 0 0 0 25.466 2.881c14.735 0 28.175-3.17 40.157-9.493 22.369-11.8 39.472-34.574 50.837-67.682 19.63-57.179 3.625-126.382-13.257-174.368-21.639-61.505-52.342-111.851-72.06-136.278zm73.97 306.747c-10.341 30.123-25.511 50.635-45.088 60.965-16.008 8.447-35.345 10.3-57.48 5.5-17-3.687-19.612-11.194-23.933-23.63-2.7-7.778-6.068-17.458-13.832-27.458-6.49-8.356-15.835-16.744-25.729-25.625-19.093-17.139-40.733-36.564-40.46-56.323.761-54.828 17.217-106.665 30.889-140.5 18.093-44.773 38.774-77.3 52.1-92.807a26.192 26.192 0 0 1 40.232.67c44.082 54.615 116.255 203.208 83.301 299.208z"/><path d="m432.3 404.814a6 6 0 0 0 8.462-.63c29.511-34.26 22.933-70.181 22.639-71.693a6 6 0 0 0 -11.783 2.273c.242 1.289 5.624 31.9-19.948 61.588a6 6 0 0 0 .63 8.462z"/><path d="m245.6 181.578c-4.465-24.816-31.9-41.251-56.1-55.751-10.931-6.549-21.255-12.734-28.408-18.992-8.045-7.037-12.261-14.295-16.338-21.314-7.193-12.384-13.988-24.08-38.116-24.607-25.534-.56-46.794 5.833-63.16 18.993-19.707 15.848-32.157 41.462-37 76.128-8.368 59.871 20.539 124.757 46.261 168.646 32.968 56.252 72.708 99.825 96.722 120.045a38.189 38.189 0 0 0 57.777-10.246c25.7-45.113 55.67-156.689 38.364-252.9zm-15.346 145.931c-9.225 47.4-23.325 83.268-33.445 101.031a26.192 26.192 0 0 1 -39.624 7.007c-53.694-45.214-152.875-177.331-138.827-277.847 4.409-31.545 15.389-54.571 32.642-68.442 13.523-10.874 31.2-16.378 52.6-16.378.919 0 1.849.01 2.782.031 17.4.38 21.388 7.252 28 18.637 4.137 7.121 9.284 15.983 18.815 24.319 7.962 6.966 18.735 13.421 30.14 20.254 22.012 13.187 46.959 28.133 50.458 47.582 9.705 53.968 3.429 107.99-3.541 143.806z"/><path d="m54.339 211.047a6 6 0 1 0 -11.873 1.74c1.733 11.835 6.962 34.385 22.506 52.43a6 6 0 1 0 9.092-7.832c-13.564-15.746-18.18-35.791-19.725-46.338z"/><path d="m47.315 196.511c.1.006.206.008.308.008a6 6 0 0 0 5.987-5.7 42.926 42.926 0 0 1 .5-5.022 6 6 0 0 0 -11.782-2.276 51.258 51.258 0 0 0 -.706 6.692 6 6 0 0 0 5.693 6.298z"/></g></svg>