<svg viewBox="1 -88 511.999 511" xmlns="http://www.w3.org/2000/svg"><path d="m391.4375 143.746094c12.828125 39.417968 72.347656 28.144531 72.347656 66.046875 0 34.621093-106.792968 56.089843-141.492187 57.875l-144.65625 2.6875c-92.675781 0-159.824219-25.269531-159.824219-101.214844s68.503906-158.183594 166.460938-158.183594c92.515624 0 183.558593 60.269531 207.164062 132.789063zm0 0" fill="#d87e35"/><path d="m428.085938 175.53125c-6.214844-2.601562-13.441407-1.246094-18.160157 3.5625-24.914062 25.375-104.835937 40.742188-133.964843 42.242188l-144.65625 2.6875c-42.328126 0-79.324219-5.273438-107.035157-18.238282 18.894531 47.671875 77.59375 64.570313 153.367188 64.570313l144.65625-2.6875c34.699219-1.789063 141.492187-23.253907 141.492187-57.875 0-20.601563-17.585937-26.679688-35.699218-34.261719zm0 0" fill="#c67030"/><path d="m434.59375 15.480469c-5.121094 6.957031-4.125 15.378906-2.40625 21.195312 1.316406 4.449219-.289062 9.242188-4.042969 11.972657l-64.253906 46.554687c-7.820313 5.667969-9.535156 16.621094-3.816406 24.410156 5.714843 7.785157 16.679687 9.429688 24.433593 3.664063l63.660157-47.359375c3.730469-2.761719 8.78125-2.859375 12.632812-.273438 5.03125 3.382813 12.773438 6.855469 20.941407 4.054688 10.707031-3.667969 15.21875-15.546875 10.710937-25.925781-3.539063-8.15625-11.148437-12.535157-18.882813-12.535157-1.664062 0-3.082031-.832031-3.960937-2.050781-.898437-1.203125-1.265625-2.804688-.769531-4.390625 2.316406-7.382813.417968-15.953125-6.304688-21.773437-8.554687-7.40625-21.238281-6.660157-27.941406 2.457031zm0 0" fill="#e2e2e2"/><path d="m198.589844 238.175781c26.667968 36.320313 79.453125 42.878907 117.90625 14.644531 18.089844-13.28125 29.074218-31.378906 35.976562-52.894531 9.167969-28.578125 22.597656-51.613281 45.011719-72.179687 5.671875-5.207032 6.726563-13.539063 2.421875-19.40625l-17.148438-23.355469c-4.308593-5.863281-12.574218-7.355469-19.238281-3.503906-26.339843 15.230469-52.339843 21.144531-82.351562 21.332031-22.589844.140625-43.148438 5.203125-61.242188 18.484375-38.449219 28.230469-48.003906 80.558594-21.335937 116.878906zm0 0" fill="#e88c38"/><path d="m399.90625 108.339844-17.152344-23.355469c-1.382812-1.886719-4.019531-2.835937-6.980468-3.242187-7.929688-1.089844-15.804688 2.175781-21.078126 8.195312-17.945312 20.503906-35.308593 47.402344-42.472656 69.742188-6.902344 21.511718-17.886718 39.613281-35.980468 52.894531-26.359376 19.355469-59.453126 22.351562-86.253907 10.625 2.261719 5.203125 5.113281 10.230469 8.601563 14.976562 26.664062 36.320313 79.453125 42.878907 117.902344 14.644531 18.09375-13.28125 29.078124-31.378906 35.980468-52.894531 9.164063-28.578125 22.59375-51.613281 45.011719-72.179687 5.671875-5.207032 6.726563-13.539063 2.421875-19.40625zm0 0" fill="#d38231"/><path d="m490.59375 264.601562h-469.1875c-7.679688 0-13.90625 6.226563-13.90625 13.90625 0 7.683594 6.226562 13.910157 13.90625 13.910157h27.195312c3.464844 0 6.589844 2.097656 7.898438 5.304687l4.761719 11.65625c4.453125 10.898438 15.054687 18.019532 26.828125 18.019532h335.820312c11.773438 0 22.375-7.121094 26.828125-18.019532l4.757813-11.65625c1.3125-3.207031 4.433594-5.304687 7.902344-5.304687h27.195312c7.679688 0 13.90625-6.226563 13.90625-13.910157 0-7.679687-6.226562-13.90625-13.90625-13.90625zm0 0" fill="#e2e2e2"/><path d="m490.59375 264.601562h-43.257812c0 15.363282-12.453126 27.816407-27.816407 27.816407h-.335937c-11.296875 0-21.476563 6.835937-25.75 17.296875l-3.394532 8.3125c-2.316406 5.667968-7.828124 9.371094-13.953124 9.371094h47.824218c11.773438 0 22.375-7.121094 26.828125-18.019532l4.757813-11.65625c1.3125-3.207031 4.433594-5.304687 7.902344-5.304687h27.195312c7.679688 0 13.90625-6.226563 13.90625-13.910157 0-7.679687-6.226562-13.90625-13.90625-13.90625zm0 0" fill="#d8d6d4"/><path d="m490.59375 257.101562h-78.914062c4.742187-1.578124 9.476562-3.289062 14.09375-5.136718 30.199218-12.070313 45.511718-26.257813 45.511718-42.171875 0-24.460938-19.816406-32.679688-37.300781-39.925781-7.492187-3.105469-15.234375-6.320313-21.578125-10.683594-3.414062-2.34375-8.085938-1.480469-10.429688 1.929687-2.347656 3.414063-1.484374 8.082031 1.929688 10.429688 7.640625 5.257812 16.128906 8.777343 24.332031 12.179687 17.914063 7.425782 28.046875 12.296875 28.046875 26.070313 0 8.785156-13.148437 19.078125-36.078125 28.246093-27.472656 10.980469-59.355469 16.929688-72.40625 19.0625h-24.5625c16.824219-13.121093 28.746094-31.09375 36.375-54.882812 9.289063-28.953125 22.53125-50.21875 42.945313-68.949219 5.664062-5.199219 8.183594-12.539062 7.300781-19.503906l42.773437-31.820313c1.164063-.863281 2.765626-.894531 3.988282-.074218 9.265625 6.222656 18.796875 7.925781 27.558594 4.921875 6.910156-2.367188 12.324218-7.320313 15.25-13.949219 3.035156-6.882812 3.003906-14.921875-.09375-22.058594-4.058594-9.351562-12.699219-15.714844-22.554688-16.859375 1.859375-9.746093-1.628906-19.898437-9.335938-26.570312-5.878906-5.089844-13.539062-7.53125-21.019531-6.695313-7.195312.804688-13.542969 4.492188-17.875 10.375-5.488281 7.460938-6.71875 17.0625-3.554687 27.765625.417968 1.410157-.089844 2.929688-1.25 3.773438l-43.183594 31.289062c-6.382812-2.925781-14.140625-2.722656-20.796875 1.125-23.984375 13.867188-48.238281 20.132813-78.644531 20.324219-26.113282.164062-47.582032 6.683594-65.632813 19.941406-20.148437 14.789063-33.652343 36.136719-38.027343 60.101563-4.402344 24.128906.953124 48.015625 15.082031 67.257812 3.941406 5.367188 8.488281 10.214844 13.527343 14.488281h-94.996093c-57.710938-11.625-85.765625-40.402343-85.765625-87.960937 0-36.183594 16.167968-73.480469 44.363281-102.328125 30.472656-31.183594 71.175781-48.355469 114.601563-48.355469 49.75 0 101.46875 18.148438 141.898437 49.792969 3.261719 2.554688 7.976563 1.976562 10.527344-1.285156 2.554687-3.261719 1.980469-7.972656-1.28125-10.527344-43.015625-33.667969-98.105469-52.980469-151.144531-52.980469-47.5 0-92.007813 18.777344-125.328126 52.871094-30.910156 31.625-48.636718 72.746094-48.636718 112.8125 0 40.621094 17.941406 70.058594 53.40625 87.960937h-42.308594c-11.804688 0-21.40625 9.601563-21.40625 21.40625 0 11.804688 9.601562 21.410157 21.40625 21.410157h27.195312c.421876 0 .796876.25.957032.640625l4.761718 11.65625c5.628907 13.78125 18.882813 22.683594 33.769532 22.683594h335.820312c14.886719 0 28.140625-8.902344 33.769532-22.683594l4.761718-11.652344c.160156-.390625.535156-.644531.957032-.644531h27.195312c11.800781 0 21.40625-9.605469 21.40625-21.410157 0-11.800781-9.601562-21.40625-21.40625-21.40625zm-58.035156-202.390624c6.289062-4.578126 9.03125-12.679688 6.820312-20.164063-1.242187-4.203125-2.035156-10.15625 1.253906-14.625 2.332032-3.171875 5.34375-4.117187 7.460938-4.355469 3.339844-.371094 6.808594.769532 9.535156 3.128906 4.871094 4.21875 5.289063 9.921876 4.054688 13.851563-1.179688 3.757813-.476563 7.894531 1.882812 11.082031 2.332032 3.199219 6.066406 5.105469 10 5.105469h.003906c4.121094 0 9.4375 2.109375 12.003907 8.023437 1.433593 3.304688 1.484375 6.964844.128906 10.03125-.859375 1.945313-2.667969 4.535157-6.390625 5.8125-5.246094 1.796876-10.691406-.738281-14.332031-3.183593-6.472657-4.347657-15.023438-4.160157-21.289063.480469l-40.554687 30.167968-11.523438-15.691406zm-227.921875 179.027343c-11.664063-15.886719-16.074219-35.664062-12.417969-55.6875 3.683594-20.183593 15.101562-38.195312 32.144531-50.707031 15.414063-11.320312 34.011719-16.890625 56.851563-17.03125 33.15625-.210938 59.695312-7.097656 86.058594-22.339844 2.902343-1.675781 6.332031-1.429687 8.515624.457032.03125.027343.0625.050781.09375.078124.300782.273438.582032.578126.828126.914063l17.148437 23.359375c.238281.324219.453125.6875.628906 1.082031.007813.015625.015625.027344.023438.039063 1.179687 2.660156.390625 6.035156-2.097657 8.316406-22.433593 20.585938-36.957031 43.847656-47.082031 75.417969-6.976562 21.75-17.863281 37.824219-33.277343 49.140625-5.75 4.222656-12.019532 7.695312-18.640626 10.324218h-58.917968c-11.972656-4.976562-22.273438-13.03125-29.859375-23.363281zm285.957031 51.179688h-330.648438c-4.140624 0-7.5 3.355469-7.5 7.5 0 4.140625 3.359376 7.5 7.5 7.5h286.554688l-2.703125 6.625c-3.316406 8.113281-11.121094 13.355469-19.886719 13.355469h-335.820312c-8.765625 0-16.570313-5.242188-19.886719-13.355469l-2.703125-6.625h59.550781c4.140625 0 7.5-3.359375 7.5-7.5 0-4.144531-3.359375-7.5-7.5-7.5h-103.644531c-3.535156 0-6.40625-2.875-6.40625-6.410157 0-3.53125 2.871094-6.40625 6.40625-6.40625h469.1875c3.53125 0 6.40625 2.875 6.40625 6.40625 0 3.535157-2.875 6.410157-6.40625 6.410157zm0 0"/></svg>