<svg id="Capa_1" enable-background="new 0 0 512 512" height="512" viewBox="0 0 512 512" width="512" xmlns="http://www.w3.org/2000/svg"><g><g fill="#05e39c"><path d="m213.512 145.295c12.054 21.847 20.934 44.854 27.463 67.343v-23.525c0-14.958.329-29.912.979-44.85-7.375-23.404-15.582-46.543-24.612-69.37l-23.162-58.554c-.437-1.106-2.094-.662-1.92.514l9.218 62.29c3.283 22.182 7.313 44.241 12.034 66.152z"/><path d="m270.988 189.113v23.525c6.528-22.49 15.409-45.496 27.463-67.343 4.721-21.911 8.751-43.97 12.033-66.151l9.218-62.29c.174-1.176-1.483-1.62-1.92-.514l-23.161 58.553c-9.03 22.828-17.237 45.967-24.612 69.371.651 14.938.979 29.891.979 44.849z"/></g><g fill="#07b27b"><g><path d="m277.7 386.025v118.475h27.014c1.657 0 3-1.343 3-3v-115.475z"/><path d="m421.388 81.036c-117.321 52.322-139.766 183.486-143.451 248.964h31.304c12.017-149.659 91.747-228.596 113.213-247.297.862-.752-.021-2.133-1.066-1.667z"/></g><path d="m255.982 290.765c2.427-23.111 6.906-50.219 15.007-78.127v-23.525c0-39.489-2.269-78.945-6.795-118.174l-7.218-62.554c-.136-1.181-1.851-1.181-1.988 0l-7.218 62.554c-4.526 39.229-6.795 78.685-6.795 118.174v23.525c8.101 27.908 12.58 55.016 15.007 78.127z"/><g><path d="m204.667 386.025v115.475c0 1.657 1.343 3 3 3h26.595v-118.475z"/><path d="m234.026 330c-3.684-65.471-26.125-196.615-143.414-248.948-1.045-.466-1.929.917-1.065 1.667 21.57 18.732 101.533 97.667 113.588 247.281z"/></g></g><g><g fill="#0ed290"><path d="m258.547 330c-1.621-64.332-18.825-220.934-144.162-280.87-1.032-.493-1.951.861-1.113 1.639 21.7 20.17 106.106 109.132 114.689 279.231z"/><path d="m228.678 386.025h29.595v118.475h-29.595z"/></g><g fill="#0ed290"><path d="m397.579 49.13c-125.338 59.936-142.542 216.538-144.162 280.87h30.586c8.583-170.099 92.989-259.061 114.69-279.231.837-.778-.082-2.132-1.114-1.639z"/><path d="m253.69 386.025h29.595v118.475h-29.595z"/></g><g><path d="m311.011 358.013h-110.059c-5.523 0-10-4.477-10-10v-8.013c0-5.523 4.477-10 10-10h110.059c5.523 0 10 4.477 10 10v8.013c0 5.522-4.477 10-10 10z" fill="#fb2b3a"/></g><g><path d="m311.011 386.025h-110.059c-5.523 0-10-4.477-10-10v-8.013c0-5.523 4.477-10 10-10h110.059c5.523 0 10 4.477 10 10v8.013c0 5.523-4.477 10-10 10z" fill="#fb2b3a"/></g></g><path d="m321.011 348.013v-8.013c0-5.523-4.477-10-10-10h-110.059c-5.523 0-10 4.477-10 10v8.013c0 5.523 4.477 10 10 10-5.523 0-10 4.477-10 10v8.013c0 5.523 4.477 10 10 10h110.059c5.523 0 10-4.477 10-10v-8.013c0-5.523-4.477-10-10-10 5.523 0 10-4.478 10-10z" fill="#fb2b3a"/><g><path d="m233 348.013v-8.013c0-5.523 4.477-10 10-10h-42.048c-5.523 0-10 4.477-10 10v8.013c0 5.523 4.477 10 10 10h42.048c-5.523 0-10-4.478-10-10z" fill="#e41f2d"/></g><g><path d="m233 376.025v-8.013c0-5.523 4.477-10 10-10h-42.048c-5.523 0-10 4.477-10 10v8.013c0 5.523 4.477 10 10 10h42.048c-5.523 0-10-4.477-10-10z" fill="#e41f2d"/></g><g><g><path d="m392.535 247.155-18.367 18.367c-1.172 1.172-3.071 1.172-4.243 0l-13.435-13.435c-1.172-1.172-1.172-3.071 0-4.243l18.367-18.367c1.172-1.172 3.071-1.172 4.243 0l13.435 13.435c1.171 1.172 1.171 3.072 0 4.243z" fill="#00c285"/></g><g><path d="m80.666 273.799-18.367 18.367c-1.172 1.172-3.071 1.172-4.243 0l-13.435-13.435c-1.172-1.172-1.172-3.071 0-4.243l18.367-18.367c1.172-1.172 3.071-1.172 4.243 0l13.435 13.435c1.172 1.172 1.172 3.071 0 4.243z" fill="#00c285"/></g><g><path d="m116.666 177.511-18.367 18.367c-1.172 1.172-3.071 1.172-4.243 0l-13.435-13.435c-1.172-1.172-1.172-3.071 0-4.243l18.367-18.367c1.172-1.172 3.071-1.172 4.243 0l13.435 13.435c1.172 1.172 1.172 3.072 0 4.243z" fill="#00c285"/></g><g><path d="m410.989 192.879-18.367-18.367c-1.172-1.172-1.172-3.071 0-4.243l13.435-13.435c1.172-1.172 3.071-1.172 4.243 0l18.367 18.367c1.172 1.172 1.172 3.071 0 4.243l-13.435 13.435c-1.172 1.171-3.072 1.171-4.243 0z" fill="#00c285"/></g><g><path d="m134.833 265.523-18.367-18.367c-1.172-1.172-1.172-3.071 0-4.243l13.435-13.435c1.172-1.172 3.071-1.172 4.243 0l18.367 18.367c1.172 1.172 1.172 3.071 0 4.243l-13.435 13.435c-1.172 1.171-3.072 1.171-4.243 0z" fill="#00c285"/></g><g><path d="m449.701 266.879-18.367-18.367c-1.172-1.172-1.172-3.071 0-4.243l13.435-13.435c1.172-1.172 3.071-1.172 4.243 0l18.367 18.367c1.172 1.172 1.172 3.071 0 4.243l-13.435 13.435c-1.172 1.171-3.071 1.171-4.243 0z" fill="#00c285"/></g></g><g><path d="m353.895 188.935c27.067-56.575 60.408-89.184 73.489-100.579 3.194-2.786 3.856-7.402 1.574-10.978s-6.751-4.917-10.625-3.191c-23.572 10.512-44.618 24.691-62.945 42.332 20.337-32.405 39.758-52.214 48.412-60.257 3.098-2.881 3.618-7.512 1.236-11.01-2.382-3.5-6.879-4.711-10.692-2.889-31.782 15.199-58.992 37.507-81.108 66.456 1.694-9.555 3.265-19.097 4.668-28.578l9.219-62.291c.632-4.273-2.039-8.338-6.212-9.455-4.169-1.112-8.516 1.07-10.102 5.085l-23.162 58.553c-4.373 11.057-8.54 22.237-12.54 33.492-.954-11.889-2.102-23.748-3.463-35.545l-7.218-62.554c-.495-4.291-4.125-7.526-8.445-7.526-4.319 0-7.949 3.235-8.444 7.526l-7.218 62.554c-1.361 11.797-2.509 23.656-3.463 35.545-4-11.254-8.166-22.435-12.54-33.491l-23.162-58.555c-1.589-4.017-5.933-6.201-10.106-5.082-4.172 1.118-6.84 5.184-6.207 9.454l9.218 62.29c1.404 9.485 2.976 19.031 4.67 28.59-1.128-1.479-2.269-2.95-3.435-4.408-2.587-3.235-7.308-3.76-10.542-1.171-3.234 2.588-3.758 7.308-1.17 10.542 39.644 49.547 55.813 113.051 62.397 157.6.984 6.662 1.784 13.1 2.442 19.271-1.229 11.803-1.925 22.541-2.297 31.835h-11.07c-4.24-67.356-20.604-129.17-48.831-184.16-12.462-24.279-25.612-43.887-37.257-58.975 3.944 3.093 7.777 6.333 11.491 9.718 3.06 2.788 7.804 2.569 10.595-.492 2.79-3.062 2.569-7.806-.493-10.596-15.808-14.404-33.619-26.393-52.941-35.632-3.814-1.821-8.312-.608-10.692 2.889-2.381 3.499-1.861 8.129 1.238 11.011 8.653 8.042 28.075 27.852 48.412 60.258-18.318-17.632-39.351-31.806-62.907-42.317-3.878-1.729-8.348-.388-10.63 3.193-2.283 3.581-1.615 8.2 1.59 10.985 10.981 9.536 39.266 36.708 64.66 82.922 25.126 45.728 40.438 96.785 45.749 152.246-6.744 2.433-11.587 8.878-11.587 16.45v8.013c0 3.718 1.174 7.162 3.159 10-1.985 2.838-3.159 6.282-3.159 10v8.013c0 8.349 5.881 15.34 13.715 17.076v108.398c0 5.79 4.71 10.5 10.5 10.5h97.046c5.79 0 10.5-4.71 10.5-10.5v-108.506c7.622-1.89 13.297-8.77 13.297-16.968v-8.013c0-3.718-1.174-7.162-3.159-10 1.985-2.838 3.159-6.282 3.159-10v-8.013c0-7.413-4.641-13.749-11.164-16.295 3.476-36.256 11.22-70.817 23.186-103.169 1.438-3.885-.548-8.199-4.433-9.636-3.887-1.437-8.199.547-9.636 4.433-12.443 33.64-20.49 69.539-24.078 107.167h-10.424c2.875-44.373 11.149-86.226 24.781-125.153 6.25-13.424 13.36-25.905 21.301-37.362 13.493-19.47 29.439-36.027 47.662-49.527-14.355 17.634-30.756 41.519-45.341 72.003-1.788 3.737-.208 8.215 3.528 10.003 3.736 1.786 8.215.206 10.004-3.529zm-120.218-19.073c-3.852-9.069-8.179-18.115-13.02-27.012-4.625-21.558-8.582-43.336-11.76-64.804l-.972-6.567 2.442 6.173c8.784 22.206 16.819 44.874 24.054 67.76-.341 8.153-.591 16.307-.744 24.45zm67.919-92.212 2.441-6.173-.972 6.568c-3.171 21.426-7.119 43.155-11.731 64.667-4.69 8.595-9.048 17.595-13.052 26.995-.152-8.091-.403-16.192-.743-24.293 7.237-22.887 15.272-45.556 24.057-67.764zm-53.121 111.463c0-39.05 2.27-78.52 6.746-117.314l.761-6.596.761 6.596c4.476 38.792 6.746 78.263 6.746 117.314v22.52c-1.776 6.183-3.441 12.479-4.964 18.914-.917 3.874-1.768 7.712-2.561 11.511-2.032-9.686-4.498-19.828-7.489-30.224zm-86.039-25.032c-11.966-21.776-24.593-39.551-35.918-53.432 18.122 13.47 33.985 29.969 47.418 49.355 7.935 11.451 15.04 23.924 21.286 37.339 13.632 38.928 21.907 80.782 24.782 125.156h-9.995c-5.47-57.643-21.393-110.772-47.573-158.418zm58.742 332.919h-9.011v-103.475h9.011zm25.011 0h-10.011v-103.475h10.011zm29.596 0h-14.596v-103.475h14.596zm24.429 0h-9.429v-103.475h9.429zm10.797-159.5c1.379 0 2.5 1.121 2.5 2.5v8.013c0 1.379-1.121 2.5-2.5 2.5h-20.011c-4.143 0-7.5 3.357-7.5 7.5s3.357 7.5 7.5 7.5h20.011c1.379 0 2.5 1.121 2.5 2.5v8.013c0 1.379-1.121 2.5-2.5 2.5h-110.059c-1.378 0-2.5-1.121-2.5-2.5v-8.013c0-1.379 1.122-2.5 2.5-2.5h55.048c4.143 0 7.5-3.357 7.5-7.5s-3.357-7.5-7.5-7.5h-55.048c-1.378 0-2.5-1.121-2.5-2.5v-8.013c0-1.379 1.122-2.5 2.5-2.5zm14.728-199.16c-28.227 54.99-44.591 116.804-48.831 184.16h-15.716c.949-22.801 3.881-54.498 11.929-88.497 9.114-38.498 22.906-72.258 40.993-100.34 13.794-21.417 30.143-39.562 48.854-54.262-11.636 15.083-24.778 34.682-37.229 58.939z"/><path d="m384.405 224.177c-1.983-1.985-4.621-3.078-7.427-3.078s-5.443 1.093-7.425 3.075l-18.367 18.367c-1.983 1.983-3.075 4.621-3.075 7.426 0 2.804 1.092 5.441 3.075 7.425l13.435 13.435c1.983 1.983 4.62 3.075 7.425 3.075 2.807 0 5.443-1.093 7.424-3.075l18.368-18.367c.001-.001.002-.002.003-.003 4.089-4.093 4.089-10.752-.003-14.848zm-12.359 32.86-7.07-7.07 12.003-12.004 7.071 7.071z"/><path d="m72.533 250.815c-4.094-4.09-10.753-4.089-14.847.002l-18.369 18.369c-4.092 4.093-4.092 10.754.001 14.849l13.435 13.435c1.983 1.983 4.62 3.075 7.425 3.075s5.442-1.093 7.424-3.075l18.368-18.367c0-.001.001-.001.001-.002 1.982-1.982 3.074-4.619 3.074-7.423 0-2.806-1.092-5.442-3.075-7.424zm-12.356 32.866-7.071-7.071 12.003-12.003 7.071 7.071z"/><path d="m121.971 182.813c4.092-4.093 4.092-10.754-.001-14.849l-13.435-13.435c-1.983-1.983-4.62-3.075-7.425-3.075s-5.442 1.093-7.424 3.075l-18.369 18.369c-1.982 1.982-3.074 4.619-3.074 7.423 0 2.806 1.092 5.442 3.075 7.424l13.437 13.438c2.047 2.045 4.734 3.067 7.422 3.067 2.689 0 5.378-1.023 7.425-3.069l18.368-18.367s.001 0 .001-.001zm-25.793 4.581-7.071-7.071 12.004-12.003 7.071 7.071z"/><path d="m437.045 177.322c0-2.805-1.092-5.441-3.075-7.425l-18.367-18.367c-1.983-1.983-4.62-3.075-7.425-3.075-2.806 0-5.443 1.093-7.424 3.075l-13.438 13.438c-4.089 4.093-4.089 10.752.002 14.848l18.367 18.367c.001 0 .002.001.003.002 2.046 2.044 4.733 3.066 7.422 3.066s5.378-1.022 7.426-3.069l13.432-13.433c1.984-1.983 3.077-4.621 3.077-7.427zm-23.936 7.072-12.003-12.003 7.071-7.071 12.003 12.003z"/><path d="m139.446 224.174c-1.983-1.983-4.62-3.075-7.425-3.075s-5.442 1.093-7.424 3.075l-13.435 13.435c-4.094 4.095-4.094 10.756 0 14.851l18.366 18.365.001.002c1.983 1.983 4.62 3.075 7.424 3.075 2.806 0 5.443-1.093 7.425-3.075l13.436-13.437c4.092-4.093 4.092-10.754-.001-14.849zm-2.492 32.863-12.004-12.003 7.071-7.071 12.004 12.003z"/><path d="m472.683 243.897-18.367-18.367c-1.983-1.983-4.621-3.075-7.426-3.075-2.804 0-5.441 1.092-7.425 3.075l-13.435 13.435c-1.983 1.983-3.075 4.621-3.075 7.425 0 2.805 1.092 5.442 3.075 7.426l18.367 18.367c.001 0 .002.001.003.002 2.047 2.045 4.734 3.067 7.422 3.067 2.689 0 5.378-1.023 7.425-3.069l13.436-13.436c4.091-4.093 4.092-10.753 0-14.85zm-20.861 14.497-12.003-12.004 7.07-7.07 12.004 12.003z"/></g></g></svg>