<svg id="Capa_1" enable-background="new 0 0 512 512" height="512" viewBox="0 0 512 512" width="512" xmlns="http://www.w3.org/2000/svg"><g><g><path clip-rule="evenodd" d="m205.773 52.102c-5.272 102.102-31.492 175.15-67.688 234.875 22.251-13.975 39.6-29.339 54.908-47.975 14.182-17.264 24.213-29.333 33.472-60.278 12.075-44.9 9.184-71.715 4.025-123.022-3.855-26.107-23.583-25.512-24.717-3.6z" fill="#3bc3a4" fill-rule="evenodd"/></g><g><path clip-rule="evenodd" d="m115.521 310.561 4.977 25.845 26.628 2.642c4.479-5.159 78.25-50.037 82.587-55.309 41.214-49.917 49.417-114.314 49.417-114.314 28.827-44.05 40.846-82.6 39.683-148.873-.283-16.724-16.242-16.441-19.388-4.45-14.654 62.305-40.279 114.603-72.961 162.621-25.738 37.814-55.84 72.963-88.381 108.253-4.223 4.592-8.532 9.212-12.869 13.833-3.627 3.856-6.518 6.861-9.693 9.752z" fill="#7fdbae" fill-rule="evenodd"/></g><g><path clip-rule="evenodd" d="m147.126 339.049-31.605-28.488c-2.353 2.154-4.875 4.252-7.965 6.661l-71.713 55.7c-32.115 24.944-11.82 66.046 16.837 74.04 2.324-12.756 10.091-26.305 25.397-39.061 25.256-21.061 47.875-44.333 69.049-68.852z" fill="#ffe5c1" fill-rule="evenodd"/></g><g><path clip-rule="evenodd" d="m279.13 169.426c-41.157 50.087-77.581 104.058-118.795 153.976l6.657 29.1 32.658 3.555c64.797-92.521 197.963-175.547 292.381-248.226v-1.049c-8.05-2.636-117.945 20.069-181.069 81.693 34.553-43.256 59.497-86.285 177.81-167.128 1.02-.539 3.26-4.79 3.26-7.88 0-.028 0-.028 0-.057 0-2.551-1.559-4.28-6.661-2.353-90.819 34.384-152.555 93.06-206.241 158.369z" fill="#a7e9a6" fill-rule="evenodd"/></g><g><path clip-rule="evenodd" d="m199.65 356.056-39.315-32.655c-4.337 5.272-8.73 10.488-13.209 15.647-21.174 24.519-43.793 47.791-69.049 68.852-15.306 12.756-23.073 26.305-25.397 39.061-9.637 52.922 74.18 92.805 103.29 9.949 13.237-37.756 39.372-94.731 43.68-100.854z" fill="#ffe5c1" fill-rule="evenodd"/></g><g><path clip-rule="evenodd" d="m147.126 339.049-31.605-28.488-.312.283 15.505 13.975c-21.174 24.491-43.793 47.791-69.049 68.852-15.306 12.756-23.101 26.277-25.426 39.061-2.721-.765-5.386-1.842-7.937-3.146 6.094 8.277 14.768 14.683 24.377 17.376 2.324-12.756 10.091-26.305 25.397-39.061 25.257-21.061 47.876-44.333 69.05-68.852z" fill="#fed1a3" fill-rule="evenodd"/></g><g><path clip-rule="evenodd" d="m259.317 164.891c-44.304 53.886-82.967 106.468-128.319 159.645l16.128 14.513c4.479-5.159 8.872-10.375 13.209-15.647 41.214-49.917 77.638-103.888 118.795-153.976 28.827-44.05 40.846-82.6 39.683-148.873-.283-16.724-16.242-16.441-19.388-4.45-.113.482-.255.964-.368 1.446.198 61.907-11.99 104.908-39.74 147.342z" fill="#3bc3a4" fill-rule="evenodd"/></g><g><path clip-rule="evenodd" d="m199.65 356.056-39.315-32.655 19.643 16.327c-4.28 6.123-30.414 63.098-43.68 100.855-16.469 46.913-50.455 54.481-75.115 42.632 21.202 29.055 73.131 35.347 94.787-26.305 13.237-37.756 39.372-94.731 43.68-100.854z" fill="#fed1a3" fill-rule="evenodd"/></g><g><path clip-rule="evenodd" d="m179.979 339.729 19.672 16.327c64.797-92.521 197.963-175.547 292.381-248.226v-1.049c-162.164 65.338-285.211 194.652-312.053 232.948z" fill="#7fdbae" fill-rule="evenodd"/></g><path d="m499.889 105.87c-.51-2.939-2.588-5.267-5.559-6.228-7.812-2.525-42.75 5.339-74.765 16.831-19.268 6.916-43.185 17.033-66.627 30.998 25.938-30.736 63.29-67.473 140.065-119.933l-.004-.006c4.315-3.034 8.42-12.628 5.553-18.928-.685-1.503-4.662-8.786-15.836-4.563-70.743 26.768-124.306 68.323-169.839 115.9 10.348-28.82 14.151-59.449 13.435-99.516-.231-13.667-8.334-19.483-15.202-20.31-8.555-1.03-16.527 4.892-18.938 14.082-.017.062-.032.125-.047.188-11.207 47.676-28.924 89.274-50.889 127.104 2.771-26.315.368-50.233-3.106-84.768l-.178-1.771c-.012-.115-.026-.23-.043-.345-2.95-19.978-13.69-26.59-22.038-26.212-8.174.388-16.783 7.749-17.588 23.316-1.419 27.133-4.385 53.131-8.816 77.273-.748 4.074 1.949 7.983 6.023 8.731 4.075.748 7.983-1.949 8.731-6.023 4.547-24.776 7.589-51.422 9.042-79.201.343-6.633 2.739-9.084 3.32-9.112h.02c.977 0 4.925 3.231 6.443 13.254l.16 1.592c5.025 49.952 7.556 75.19-3.773 117.749-14.562 21.297-30.387 41.509-46.998 61.122 9.918-22.686 17.963-46.211 24.279-70.974 1.023-4.014-1.4-8.097-5.414-9.121-4.012-1.019-8.097 1.4-9.121 5.414-11.012 43.175-27.424 82.462-50.156 120.083-4.074 4.405-8.168 8.798-12.28 13.186-3.536 3.774-13.887 13.371-16.786 15.616l-71.714 55.7c-15.106 11.733-21.801 28.476-18.367 45.935 3.334 16.953 15.913 32.198 31.596 39.051-.456 7.29.588 14.611 3.215 21.793 8.25 22.549 30.62 38.223 54.488 38.222.119 0 .238 0 .357-.001 26.784-.176 48.841-19.349 60.515-52.606 13.455-38.376 39.251-94.054 42.747-99.036 18.798-26.862 44.817-54.821 79.546-85.473 3.105-2.741 3.401-7.48.66-10.586s-7.481-3.402-10.586-.66c-32.829 28.975-58.138 55.721-77.152 81.517l-27.412-22.768c19.343-23.759 113.802-147.689 114.085-148.112 49.07-59.58 105.495-114.208 184.474-148.632-92.322 64.965-123.602 105.545-151.367 141.561-4.399 5.708-8.556 11.1-12.942 16.59-2.473 3.097-2.11 7.583.827 10.242 2.94 2.66 7.439 2.574 10.273-.195 31.832-31.089 75.043-51.014 105.686-62.253 17.021-6.243 32.215-10.587 44-13.388-15.467 11.524-31.692 23.306-48.553 35.549-38.772 28.154-78.865 57.266-116.101 87.925-3.197 2.633-3.655 7.359-1.022 10.557 2.634 3.198 7.36 3.655 10.558 1.023 36.884-30.368 160.484-120.563 185.839-139.482 2.601-1.94 3.797-4.933 3.282-7.901zm-472.296 304.17c-1.651-8.395-.762-20.622 12.85-31.194l71.705-55.694c1.16-.898 2.237-1.755 3.263-2.593l21.197 19.106c-19.58 22.238-40.444 43.396-63.334 62.475-12.673 10.564-21.33 22.412-25.674 34.694-9.898-5.435-17.836-15.757-20.007-26.794zm162.48-52.189c-9.023 17.496-29.98 64.632-41.179 96.576-9.452 26.924-26.385 42.441-46.46 42.573-.084 0-.166 0-.25 0-17.414 0-34.381-11.899-40.41-28.376-6.658-18.198 1.035-38.231 21.106-54.962 25.441-21.205 48.331-44.774 69.692-69.467.041-.043.086-.081.126-.125.105-.117.198-.24.294-.362 2.794-3.235 5.562-6.487 8.306-9.758zm24.333-116.728c-21.796 29.2-43.981 58.911-67.988 87.189l-19.93-17.964c1.321-1.357 2.698-2.806 4.2-4.411 34.802-37.135 71.066-77.622 101.873-122.863.067-.094.131-.191.194-.289 1.77-2.602 3.53-5.213 5.262-7.846 33.251-50.558 55.719-101.918 68.683-157.011.591-2.161 1.874-3.006 2.616-2.921.769.093 1.935 1.959 1.997 5.679 1.1 61.587-8.965 99.535-38.402 144.565-20.403 24.832-39.544 50.47-58.505 75.872z"/></g></svg>