<?xml version="1.0"?>
<svg xmlns="http://www.w3.org/2000/svg" viewBox="0 0 512 512" width="512" height="512"><g id="Fill_out_line" data-name="Fill out line"><path d="M488,200l-6.46,4.31006a85.90927,85.90927,0,0,0-38.03,77.49L360,184Z" style="fill:#e6e6e6"/><path d="M376,288l-6.75,65.29-8.11,78.37988-108.80993.26H252.14a68.13133,68.13133,0,0,1-48.17-19.96A68.17391,68.17391,0,0,0,155.76,392H144L80,488A257.61357,257.61357,0,0,0,24.36,288.43994L24,288l104,56Z" style="fill:#2b7cd4"/><polygon points="160 392 184 456 256 432 208 392 160 392" style="fill:#ccc"/><path d="M456,328.85v7.96008A94.84718,94.84718,0,0,1,314.15991,419.21L238.88,376.28A361.41041,361.41041,0,0,1,112.71,256q-5.00994-7.875-9.6-16A361.4851,361.4851,0,0,1,56.37,69.65991c-.06995-2.72-.09-5.45-.09-8.17993l.01-8.14.04-29.01L86.95,24.37A361.65952,361.65952,0,0,1,288,85.7q8.025,5.38514,15.77,11.2A361.42206,361.42206,0,0,1,400.65,206.76l42.86,75.04A94.81885,94.81885,0,0,1,456,328.85Z" style="fill:#3ea7ff"/><path d="M369.25,353.29l-8.11,78.37988-108.80993.26H252.14a68.13133,68.13133,0,0,1-48.17-19.96A68.17391,68.17391,0,0,0,155.76,392H144V374.33Z" style="fill:#e6e6e6"/><path d="M361.14,431.66992h-1.27A202.64237,202.64237,0,0,1,282.01,416.13l-8.68994-3.62a202.23118,202.23118,0,0,1-65.76-44.12L353.25,354.78Z" style="fill:#e6e6e6"/><path d="M428.22,403.89a94.84755,94.84755,0,0,1-114.06006,15.32L238.88,376.28A361.41041,361.41041,0,0,1,112.71,256q-5.00994-7.875-9.6-16A361.4851,361.4851,0,0,1,56.37,69.65991c-.06995-2.72-.09-5.45-.09-8.17993l.01-8.14.04-29.01,108.54992,79.11q26.19014,19.08,50.88,39.94006,6.21,5.22,12.32007,10.58,14.64,12.795,28.71,26.21,5.81982,5.56512,11.55,11.21008A910.431,910.431,0,0,1,428.22,403.89Z" style="fill:#e6e6e6"/><circle cx="156" cy="76" r="12" style="fill:gray"/><path d="M320,328l-38.72,3.87a47.9903,47.9903,0,0,1-51.34009-36.12l-4.77-19.06006A63.54377,63.54377,0,0,0,248,263.2Z" style="fill:#b3b3b3"/><polygon points="259.556 388 320 456 320 400 259.556 388" style="fill:#b3b3b3"/><path d="M120.61,400.97,80,488a257.36147,257.36147,0,0,0,.5-69.17993q-1.26014-9.765-3.25-19.39014A255.33531,255.33531,0,0,0,68.91992,368.79q-2.92493-8.655-6.48-17.1001a257.375,257.375,0,0,0-38.07995-63.25L24,288l82.39,58.85a43.78172,43.78172,0,0,1,14.22,54.12Z" style="fill:#e6e6e6"/><path d="M156,96a20,20,0,1,0-20-20A20.02292,20.02292,0,0,0,156,96Zm0-24a4,4,0,1,1-4,4A4.00458,4.00458,0,0,1,156,72Z"/><path d="M160,192a80.09041,80.09041,0,0,0,80-80H224a64.0727,64.0727,0,0,1-64,64Z"/><path d="M259.5127,262.79834a72.06947,72.06947,0,0,0,11.915-19.82715l-14.85546-5.94238A55.36691,55.36691,0,0,1,204.919,272H200v16H204.919a72.50284,72.50284,0,0,0,14.46923-1.4624l2.78858,11.15478a56.35754,56.35754,0,0,0,54.39941,42.41455c1.82129,0,3.65869-.09033,5.50049-.27441l38.71924-3.87207a7.99989,7.99989,0,0,0,4.55566-13.90674Zm20.97216,61.11328a40.21706,40.21706,0,0,1-42.78564-30.1001l-3.054-12.21582a71.00169,71.00169,0,0,0,13.17969-7.79077l53.37232,48.0354Z"/><path d="M495.78516,198.1582a7.99926,7.99926,0,0,0-6.8003-6.09716L393.59766,180.23A369.77672,369.77672,0,0,0,86.95752,16.375l-30.62109-.04248H56.3252a7.99955,7.99955,0,0,0-8,7.98926l-.04883,37.14746A369.67014,369.67014,0,0,0,161.4812,328.238l-32.32349,7.29907L27.793,280.95605a8.00014,8.00014,0,0,0-9.98535,12.10889l.35791.438a250.25193,250.25193,0,0,1,53.915,193.36572,7.99947,7.99947,0,0,0,14.57568,5.56885L148.28125,400h6.11694l21.37769,58.73633a7.99214,7.99214,0,0,0,10.02539,4.86035l71.73132-23.6781,37.38831-.0907,19.09961,21.48706A8.00022,8.00022,0,0,0,328,456V439.7478l33.16455-.08032v-.00024A102.97153,102.97153,0,0,0,464,336.8125v-7.96582a103.02535,103.02535,0,0,0-12.59839-49.29614A78.033,78.033,0,0,1,485.979,210.96191l6.4585-4.30566A8.00009,8.00009,0,0,0,495.78516,198.1582ZM64.42383,71.86a71.02731,71.02731,0,0,1,47.65674,57.27136l15.83886-2.2627a87.02529,87.02529,0,0,0-63.63476-71.7622l.02978-22.7627,22.62061.03125A354.27738,354.27738,0,0,1,264.29443,80.31738Q276.3728,87.33966,287.822,95.28052C284.009,175.72559,217.372,240,136,240H112.33862c-.09863-.16931-.20068-.33643-.29907-.50586A354.2658,354.2658,0,0,1,64.42383,71.86Zm23.106,339.9237L116.71753,382.596a35.65214,35.65214,0,0,1-3.35376,14.99243L90.5094,446.562A266.01759,266.01759,0,0,0,87.52979,411.78369ZM83.92456,392.762q-2.614-11.495-6.23413-22.72509l25.33936,3.61987ZM71.55444,352.99817a266.08775,266.08775,0,0,0-15.44091-32.22888l45.62866,32.592a35.78369,35.78369,0,0,1,5.36572,4.71582Zm100.70581,49.29626A59.47611,59.47611,0,0,1,190.83,411.27551L176.56714,414.128Zm9.84253,27.04346,24.15625-4.83118a76.80027,76.80027,0,0,0,17.281,9.78357l-35.38379,11.67993Zm70.21021-5.40674h-.14209a60.57268,60.57268,0,0,1-42.54834-17.62207A75.6682,75.6682,0,0,0,155.76416,384H144a7.99943,7.99943,0,0,0-6.65625,3.5625l-7.06335,10.595a51.80458,51.80458,0,0,0-9.81727-49.12952l3.7439,2.016a8.0004,8.0004,0,0,0,5.55518.75976L175.868,341.39258a369.59451,369.59451,0,0,0,59.04553,41.84082l19.6731,11.21838,26.14258,29.41052ZM312,434.9585,279.186,398.043,312,406.24609Zm136-98.146a86.84711,86.84711,0,0,1-120,80.27808V400a8.00059,8.00059,0,0,0-6.05957-7.76123l-64-16a7.95281,7.95281,0,0,0-3.19373-.11475l-11.90734-6.79A354.2852,354.2852,0,0,1,122.24316,256H136c86.4231,0,157.803-65.5979,166.98975-149.61609a354.30627,354.30627,0,0,1,90.71679,104.34558L436.56543,285.771A86.99693,86.99693,0,0,1,448,328.84668ZM453.27539,220.569,436.4375,209.34375l-8.875,13.3125,17.43982,11.62646a94.23668,94.23668,0,0,0-7.42371,21.00074L407.6001,202.794q-1.45569-2.54883-2.95227-5.071l62.32678,7.73071A93.75338,93.75338,0,0,0,453.27539,220.569Z"/></g></svg>
