<svg height="512" viewBox="0 0 60 60" width="512" xmlns="http://www.w3.org/2000/svg"><g id="020---Nori" fill="none"><g id="Icons" transform="translate(1 1)"><path id="Shape" d="m40 0v18.59l-.13-.1c-1.0948991-.8699508-2.6451009-.8699508-3.74 0l-1.26 1c-1.0948991.8699508-2.6451009.8699508-3.74 0l-1.26-1c-1.0948991-.8699508-2.6451009-.8699508-3.74 0l-1.26 1c-1.0948991.8699508-2.6451009.8699508-3.74 0l-3.13-2.49v7.45l-1.13.9c-1.0948991.8699508-2.6451009.8699508-3.74 0l-1.26-1c-1.0948991-.8699508-2.64510092-.8699508-3.74 0l-1.26 1c-1.09489908.8699508-2.64510092.8699508-3.74 0l-3.13-2.49v-22.86l3.13 2.49c1.09489908.86995078 2.64510092.86995078 3.74 0l1.26-1c1.09489908-.86995078 2.6451009-.86995078 3.74 0l1.26 1c1.0948991.86995078 2.6451009.86995078 3.74 0l1.26-1c1.0948991-.86995078 2.6451009-.86995078 3.74 0l1.26 1c1.0948991.86995078 2.6451009.86995078 3.74 0l1.26-1c1.0948991-.86995078 2.6451009-.86995078 3.74 0l1.26 1c1.0948991.86995078 2.6451009.86995078 3.74 0z" fill="#37474f"/><path id="Shape" d="m58 17v22.86l-3.13 2.49c-1.0948991.8699508-2.6451009.8699508-3.74 0l-1.26-1c-1.0948991-.8699508-2.6451009-.8699508-3.74 0l-1.26 1c-1.0948991.8699508-2.6451009.8699508-3.74 0l-1.13-.9v-9.45l-3.13 2.49c-1.0948991.8699508-2.6451009.8699508-3.74 0l-1.26-1c-1.0948991-.8699508-2.6451009-.8699508-3.74 0l-1.26 1c-1.0948991.8699508-2.6451009.8699508-3.74 0l-1.26-1c-1.0948991-.8699508-2.6451009-.8699508-3.74 0l-.13.1v-16.59l3.13 2.49c1.0948991.8699508 2.6451009.8699508 3.74 0l1.26-1c1.0948991-.8699508 2.6451009-.8699508 3.74 0l1.26 1c1.0948991.8699508 2.6451009.8699508 3.74 0l1.26-1c1.0948991-.8699508 2.6451009-.8699508 3.74 0l.13.1 1.13.9c1.0948991.8699508 2.6451009.8699508 3.74 0l1.26-1c1.0948991-.8699508 2.6451009-.8699508 3.74 0l1.26 1c1.0948991.8699508 2.6451009.8699508 3.74 0z" fill="#00695c"/><path id="Shape" d="m40 32v22.86l-3.13 2.49c-1.0948991.8699508-2.6451009.8699508-3.74 0l-1.26-1c-1.0948991-.8699508-2.6451009-.8699508-3.74 0l-1.26 1c-1.0948991.8699508-2.6451009.8699508-3.74 0l-1.26-1c-1.0948991-.8699508-2.6451009-.8699508-3.74 0l-1.26 1c-1.0948991.8699508-2.6451009.8699508-3.74 0l-1.26-1c-1.0948991-.8699508-2.64510092-.8699508-3.74 0l-1.26 1c-1.09489908.8699508-2.64510092.8699508-3.74 0l-3.13-2.49v-22.86l3.13 2.49c1.09489908.8699508 2.64510092.8699508 3.74 0l1.26-1c1.09489908-.8699508 2.6451009-.8699508 3.74 0l1.26 1c1.0948991.8699508 2.6451009.8699508 3.74 0l1.13-.9.13-.1c1.0948991-.8699508 2.6451009-.8699508 3.74 0l1.26 1c1.0948991.8699508 2.6451009.8699508 3.74 0l1.26-1c1.0948991-.8699508 2.6451009-.8699508 3.74 0l1.26 1c1.0948991.8699508 2.6451009.8699508 3.74 0z" fill="#009688"/><path id="Shape" d="m37 34.385v20.476l-3.126 2.486c-.1183631.0918005-.2433728.1746946-.374.248 1.0692555.6164128 2.4063659.5181309 3.374-.248l3.126-2.486v-22.861z" fill="#00695c"/></g><g id="Layer_10" fill="#000" transform="translate(0 -1)"><path id="Shape" d="m7 19h-1c-.55228475 0-1 .4477153-1 1s.44771525 1 1 1h1c.55228475 0 1-.4477153 1-1s-.44771525-1-1-1z"/><path id="Shape" d="m28 14h6c.5522847 0 1-.4477153 1-1s-.4477153-1-1-1h-6c-.5522847 0-1 .4477153-1 1s.4477153 1 1 1z"/><path id="Shape" d="m14 11c.5522847 0 1-.4477153 1-1 0-.55228475-.4477153-1-1-1h-1c-.5522847 0-1 .44771525-1 1 0 .5522847.4477153 1 1 1z"/><path id="Shape" d="m21 16h1c.5522847 0 1-.4477153 1-1s-.4477153-1-1-1h-1c-.5522847 0-1 .4477153-1 1s.4477153 1 1 1z"/><path id="Shape" d="m34 18c0 .5522847.4477153 1 1 1h1c.5522847 0 1-.4477153 1-1s-.4477153-1-1-1h-1c-.5522847 0-1 .4477153-1 1z"/><path id="Shape" d="m11 14h-4c-.55228475 0-1 .4477153-1 1s.44771525 1 1 1h4c.5522847 0 1-.4477153 1-1s-.4477153-1-1-1z"/><path id="Shape" d="m58.377 18.217-3.131 2.491c-.7310831.5773781-1.7629169.5773781-2.494 0l-1.258-1c-1.4619113-1.1533384-3.5240887-1.1533384-4.986 0l-1.262 1c-.7310831.5773781-1.7629169.5773781-2.494 0l-.752-.598v-18.11c.000299-.38415412-.2194895-.73452113-.5654834-.90144239-.3459939-.16692127-.7570229-.12088582-1.0575166.11844239l-3.131 2.491c-.7310831.57737809-1.7629169.57737809-2.494 0l-1.258-1c-1.4619113-1.1533384-3.5240887-1.1533384-4.986 0l-1.262 1c-.7310831.57737809-1.7629169.57737809-2.494 0l-1.258-1c-1.4619113-1.1533384-3.5240887-1.1533384-4.986 0l-1.262 1c-.7310831.57737809-1.7629169.57737809-2.494 0l-1.258-1c-1.4619113-1.1533384-3.52408867-1.1533384-4.986 0l-1.262 1c-.73089231.57685175-1.76210769.57685175-2.493 0l-3.13-2.491c-.30049374-.23932821-.71152268-.28536366-1.05751657-.11844239-.34599388.16692126-.56578246.51728827-.56548343.90144239v22.86c-.00023712.3048172.1385652.5930989.377.783l3.129 2.488c.70858147.5643834 1.58812313.8708476 2.494.869 1.665 0 2.462-.841 3.753-1.866.7312099-.5770127 1.7627901-.5770127 2.494 0l1.258 1c1.291552 1.0154183 3.0704479 1.1444328 4.495.326v6.648l-.748.6c-.7306656.5850007-1.7693344.5850007-2.5 0l-1.252-1c-1.4586506-1.1691045-3.53334935-1.1691045-4.992 0l-1.252 1c-.7306656.5850007-1.7693344.5850007-2.5 0l-3.134-2.491c-.30050631-.2387111-.71111701-.2843839-1.05673354-.1175419s-.56525984.516762-.56526646.9005419v22.861c.00000526.3049864.13919038.5932984.378.783l3.122 2.485c1.45865065 1.1691045 3.53334935 1.1691045 4.992 0l1.252-.995c.7306656-.5850007 1.7693344-.5850007 2.5 0l1.252.995c1.4586506 1.1691045 3.5333494 1.1691045 4.992 0l1.252-.995c.7306656-.5850007 1.7693344-.5850007 2.5 0l1.252.995c1.4586506 1.1691045 3.5333494 1.1691045 4.992 0l1.252-.995c.7306656-.5850007 1.7693344-.5850007 2.5 0l1.252.995c1.4586506 1.1691045 3.5333494 1.1691045 4.992 0l3.126-2.485c.2448193-.1864698.3901457-.4752783.394-.783v-11.401c.6080243.3516781 1.2975995.5378634 2 .54 1.665 0 2.462-.841 3.753-1.866.7313365-.5766478 1.7626635-.5766478 2.494 0l1.258 1c1.4622289 1.1534994 3.5247711 1.1534994 4.987 0l3.13-2.49c.2390845-.1899196.3783-.4786629.378-.784v-22.86c.000299-.3841541-.2194895-.7345211-.5654834-.9014424s-.7570229-.1208858-1.0575166.1184424zm-41.131 8.352c-.7312099.5770127-1.7627901.5770127-2.494 0l-1.258-1c-1.4619113-1.1533384-3.52408867-1.1533384-4.986 0l-1.262 1c-.73089231.5768518-1.76210769.5768518-2.493 0l-2.753-2.192v-20.303l1.506 1.2c1.46216435 1.15260896 3.52383565 1.15260896 4.986 0l1.262-1c.7313365-.5766478 1.7626635-.5766478 2.494 0l1.258 1c1.4621643 1.15260896 3.5238357 1.15260896 4.986 0l1.262-1c.7313365-.5766478 1.7626635-.5766478 2.494 0l1.258 1c1.4621643 1.15260896 3.5238357 1.15260896 4.986 0l1.262-1c.7313365-.5766478 1.7626635-.5766478 2.494 0l1.258 1c1.4627343 1.15204175 3.5242657 1.15204175 4.987 0l1.507-1.2v14.908c-1.213344-.3171069-2.5051683-.0489017-3.492.725l-1.262 1c-.7310831.5773781-1.7629169.5773781-2.494 0-.6897205-.6565171-1.4813249-1.1968614-2.344-1.6-1.3152314-.4980992-2.7953062-.2703954-3.9.6l-1.262 1c-.7308923.5768518-1.7621077.5768518-2.493 0l-3.13-2.491c-.3006349-.2394415-.7118944-.285399-1.0579678-.1182262-.3460735.1671729-.5657161.5178916-.5650322.9022262h-4c-.5522847 0-1 .4477153-1 1s.4477153 1 1 1h4v4.968zm22.754 29.809-2.748 2.186c-.7306656.5850007-1.7693344.5850007-2.5 0-1.279-1.017-2.1-1.872-3.748-1.872s-2.47.856-3.748 1.872c-.7306656.5850007-1.7693344.5850007-2.5 0l-1.252-1c-1.4586506-1.1691045-3.5333494-1.1691045-4.992 0l-1.252 1c-.7306656.5850007-1.7693344.5850007-2.5 0l-1.252-1c-1.4586506-1.1691045-3.53334935-1.1691045-4.992 0l-1.252 1c-.7306656.5850007-1.7693344.5850007-2.5 0l-2.764-2.186v-20.3l1.5 1.2c1.45865065 1.1691045 3.53334935 1.1691045 4.992 0l1.252-1c.7306656-.5850007 1.7693344-.5850007 2.5 0l1.252 1c1.4586506 1.1691045 3.5333494 1.1691045 4.992 0l1.252-1c.7306656-.5850007 1.7693344-.5850007 2.5 0l1.252 1c1.4586506 1.1691045 3.5333494 1.1691045 4.992 0l1.252-1c.7306656-.5850007 1.7693344-.5850007 2.5 0l1.252 1c1.4586506 1.1691045 3.5333494 1.1691045 4.992 0l1.5-1.2zm18-15-2.754 2.192c-.7310831.5773781-1.7629169.5773781-2.494 0l-1.258-1c-1.4619113-1.1533384-3.5240887-1.1533384-4.986 0l-1.262 1c-.7308923.5768518-1.7621077.5768518-2.493 0l-.753-.6v-4.97h6c.5522847 0 1-.4477153 1-1s-.4477153-1-1-1h-6v-2c-.0000066-.3837799-.2196499-.7336999-.5652665-.9005419-.3456165-.166842-.7562272-.1211692-1.0567335.1175419l-3.126 2.483c-.7306656.5850007-1.7693344.5850007-2.5 0l-1.252-1c-1.4586506-1.1691045-3.5333494-1.1691045-4.992 0l-1.252 1c-.7306656.5850007-1.7693344.5850007-2.5 0l-1.252-1c-.9844902-.7853347-2.2827653-1.0579725-3.5-.735v-12.9l1.506 1.2c1.4621643 1.152609 3.5238357 1.152609 4.986 0l1.262-1c.7313365-.5766478 1.7626635-.5766478 2.494 0l1.258 1c1.4621643 1.152609 3.5238357 1.152609 4.986 0l1.262-1c.7313365-.5766478 1.7626635-.5766478 2.494 0l1.258 1c1.4621643 1.152609 3.5238357 1.152609 4.986 0l1.262-1c.7313365-.5766478 1.7626635-.5766478 2.494 0l1.258 1c1.4627343 1.1520417 3.5242657 1.1520417 4.987 0l1.503-1.191z"/><path id="Shape" d="m53 30c0-.5522847-.4477153-1-1-1h-6c-.5522847 0-1 .4477153-1 1s.4477153 1 1 1h6c.5522847 0 1-.4477153 1-1z"/><path id="Shape" d="m32 26h-1c-.5522847 0-1 .4477153-1 1s.4477153 1 1 1h1c.5522847 0 1-.4477153 1-1s-.4477153-1-1-1z"/><path id="Shape" d="m39 29h-1c-.5522847 0-1 .4477153-1 1s.4477153 1 1 1h1c.5522847 0 1-.4477153 1-1s-.4477153-1-1-1z"/><path id="Shape" d="m54 34h-1c-.5522847 0-1 .4477153-1 1s.4477153 1 1 1h1c.5522847 0 1-.4477153 1-1s-.4477153-1-1-1z"/><path id="Shape" d="m29 31h-4c-.5522847 0-1 .4477153-1 1s.4477153 1 1 1h4c.5522847 0 1-.4477153 1-1s-.4477153-1-1-1z"/><path id="Shape" d="m7 51h-1c-.55228475 0-1 .4477153-1 1s.44771525 1 1 1h1c.55228475 0 1-.4477153 1-1s-.44771525-1-1-1z"/><path id="Shape" d="m30 51h-16c-.5522847 0-1 .4477153-1 1s.4477153 1 1 1h16c.5522847 0 1-.4477153 1-1s-.4477153-1-1-1z"/><path id="Shape" d="m35 45c0-.5522847-.4477153-1-1-1h-6c-.5522847 0-1 .4477153-1 1s.4477153 1 1 1h6c.5522847 0 1-.4477153 1-1z"/><path id="Shape" d="m14 43c.5522847 0 1-.4477153 1-1s-.4477153-1-1-1h-1c-.5522847 0-1 .4477153-1 1s.4477153 1 1 1z"/><path id="Shape" d="m21 48h1c.5522847 0 1-.4477153 1-1s-.4477153-1-1-1h-1c-.5522847 0-1 .4477153-1 1s.4477153 1 1 1z"/><path id="Shape" d="m36 49h-1c-.5522847 0-1 .4477153-1 1s.4477153 1 1 1h1c.5522847 0 1-.4477153 1-1s-.4477153-1-1-1z"/><path id="Shape" d="m11 46h-4c-.55228475 0-1 .4477153-1 1s.44771525 1 1 1h4c.5522847 0 1-.4477153 1-1s-.4477153-1-1-1z"/></g></g></svg>