<?xml version="1.0" encoding="iso-8859-1"?>
<!-- Generator: Adobe Illustrator 19.0.0, SVG Export Plug-In . SVG Version: 6.00 Build 0)  -->
<svg version="1.1" id="Layer_1" xmlns="http://www.w3.org/2000/svg" xmlns:xlink="http://www.w3.org/1999/xlink" x="0px" y="0px"
	 viewBox="0 0 510.558 510.558" style="enable-background:new 0 0 510.558 510.558;" xml:space="preserve">
<g>
	<path style="fill:#E53935;" d="M459.853,127.358c-32.4-60.8-94.8-60-138.8-39.2l-0.4,3.2c4.4,3.6,8,7.6,11.6,12.4
		c-4.4-4.4-8.8-8.4-11.6-10.8v-0.4c-19.6-16-44.4-22.8-66-22.8c-20.8,0-44.8,6.4-64,21.2c-0.4,0.4-1.2,1.6-1.6,2v0.4
		c-16.4,14-28.4,34-31.6,64.4l-1.2,0.4c1.6-36.4,14.4-51.2,32.8-66.4l-0.4-3.2c-44-21.2-106-21.6-138.8,39.2
		c-40,74.4,38.8,408,138.8,376.8c11.2-3.6,20.4-7.2,28-11.6c0.4,0.4,0.4,0.4,0.8,0.8v-0.8l0,0c10.8,9.6,23.2,14.4,38,14.4
		c15.2,0,28-5.2,38.8-15.6v0.8c7.2,4,16,8,27.2,11.2C421.053,535.358,499.853,201.758,459.853,127.358z M185.053,438.158v-1.2
		c0.4-0.4,0.8-1.2,0.4-1.6l1.6,0.4v3.6C185.853,438.958,185.453,438.558,185.053,438.158z"/>
	<path style="fill:#E53935;" d="M281.053,10.958c0,0-2.4-4-6-7.2c0,0-34.8,20-36.4,64.8l26.8-0.8
		C265.453,67.758,255.053,36.158,281.053,10.958z"/>
</g>
<path d="M175.453,509.758c-18,0-36-10.8-53.6-31.6c-67.6-81.6-106-295.2-75.2-352.8c32.4-60.4,95.6-64,144-40.8c2,0.8,2.8,3.2,2,5.2
	s-3.2,2.8-5.2,2c-41.6-20-101.6-22-133.2,37.2c-29.2,54.4,9.6,265.6,74,343.6c20,24,40,33.2,59.6,26.8c10.8-3.6,20.4-7.6,27.6-12
	c2-1.2,4.4-0.4,5.6,1.2s0.4,4.4-1.2,5.6c-8,4.8-18,8.8-29.2,12.8C185.053,508.958,180.253,509.758,175.453,509.758z"/>
<path d="M334.653,509.758c-4.8,0-9.6-0.8-14.8-2.4c-10.8-3.6-20-7.2-27.6-11.6c-2-1.2-2.4-3.6-1.6-5.6c1.2-2,3.6-2.4,5.6-1.6
	c7.2,4,16,7.6,26.4,11.2c19.6,6.4,40-2.8,59.6-26.8c64.8-78,103.2-289.2,74-343.6c-32-59.2-91.6-57.2-133.2-37.2c-2,0.8-4.4,0-5.2-2
	s0-4.4,2-5.2c48.4-23.2,111.6-19.6,144,40.8c30.8,57.6-7.2,270.8-75.2,352.8C370.653,499.358,352.653,509.758,334.653,509.758z"/>
<path d="M155.853,171.358C155.853,171.358,155.453,171.358,155.853,171.358c-2.4,0-4-2-4-4c1.6-34,13.2-60.4,34.8-78.4
	c0.4-0.4,1.2-0.8,1.6-1.2l0.4-0.4c24-18.8,52-21.6,66.4-21.6c15.2,0,44.4,2.8,68.4,22.8c10,8.4,18,18.8,24,31.2c0.8,2,0,4.4-2,5.2
	c-2,0.8-4.4,0-5.2-2c-5.2-11.2-12.4-20.8-21.6-28.4c-22-18.4-49.2-21.2-63.6-21.2c-13.6,0-39.2,2.8-61.6,20
	c-0.8,0.4-1.2,0.8-1.6,1.2c-20,16.8-30.8,41.2-32,72.8C159.453,169.758,157.853,171.358,155.853,171.358z"/>
<path d="M335.053,412.158c-0.4,0-0.8,0-1.2,0c-2-0.4-3.6-2.8-2.8-4.8c2.4-8.8,4.4-18.8,6.4-28.8c13.2-68.4,14-145.6,13.2-185.6
	c0-2.4,1.6-4,4-4l0,0c2,0,4,1.6,4,4c0.8,40.4-0.4,118-13.6,187.2c-2,10.4-4.4,20.4-6.4,29.6
	C338.653,410.958,337.053,412.158,335.053,412.158z"/>
<path d="M255.453,510.558c-14.8,0-28.4-5.6-40.4-16c-5.6-5.2-11.2-11.2-16-18.8c-6.4-9.6-12-21.2-17.2-34.8l-0.8-1.6
	c-0.4-0.8-0.8-1.6-0.8-2.4c-0.8-2,0.4-4.4,2.4-5.2c2-0.8,4.4,0.4,5.2,2.4c0.4,0.8,0.4,1.6,0.8,2.4l0.8,1.6
	c4.8,12.8,10.4,24,16.4,33.2c4.8,6.8,9.6,12.8,14.8,17.2c10.4,9.6,22,14,35.2,14c13.6,0,25.6-4.8,36.4-15.2c4.4-4,8.8-9.2,12.8-15.2
	c1.2-2,3.6-2.4,5.6-1.2c2,1.2,2.4,3.6,1.2,5.6c-4.4,6.4-9.2,12-14,16.4C284.653,504.558,270.653,510.558,255.453,510.558z"/>
<path d="M150.253,466.158c-1.2,0-2-0.4-2.8-1.2c-6.4-7.2-12.8-16-19.2-26.4c-11.2-18.4-21.6-41.2-30.8-68c-0.8-2,0.4-4.4,2.4-5.2
	c2-0.8,4.4,0.4,5.2,2.4c9.2,25.6,19.6,48.8,30,66.4c6,10,12,18.4,18,25.2c1.6,1.6,1.2,4-0.4,5.6
	C152.253,465.758,151.053,466.158,150.253,466.158z"/>
<path d="M438.653,247.358h-0.4c-2-0.4-3.6-2.4-3.6-4.4c4-31.2,4.8-59.2,2.4-79.2c-0.4-2,1.2-4,3.6-4.4c2-0.4,4,1.2,4.4,3.6
	c2,14.8,2.8,40.8-2.4,81.2C442.253,246.158,440.653,247.358,438.653,247.358z"/>
<path d="M426.253,131.358c-1.2,0-2.4-0.4-3.2-1.6c-8.8-11.2-20-18-33.2-20.8c-4.4-0.8-9.6-1.6-14.4-1.6c-2.4,0-4-1.6-4-4s1.6-4,4-4
	c5.6,0,11.2,0.4,16,1.6c15.2,3.2,27.6,11.2,37.6,23.6c1.2,1.6,1.2,4.4-0.8,5.6C428.253,130.958,427.453,131.358,426.253,131.358z"/>
<path d="M239.053,72.558C238.653,72.558,238.653,72.558,239.053,72.558c-2.4,0-4-2-4-4c1.6-46.4,36.8-67.2,38.4-68
	c1.6-0.8,3.2-0.8,4.4,0.4c4.4,3.6,6.8,8,6.8,8.4c0.8,1.6,0.4,3.6-0.8,4.8c-24,23.2-14.8,51.6-14.4,52.8c0.8,2-0.4,4.4-2.4,5.2
	c-2,0.8-4.4-0.4-5.2-2.4c-0.4-1.2-10.4-32.4,14.4-58.8c-0.4-0.4-0.8-1.2-1.2-1.6c-7.6,5.6-30.8,24.8-32,60
	C242.653,70.958,241.053,72.558,239.053,72.558z"/>
<g>
</g>
<g>
</g>
<g>
</g>
<g>
</g>
<g>
</g>
<g>
</g>
<g>
</g>
<g>
</g>
<g>
</g>
<g>
</g>
<g>
</g>
<g>
</g>
<g>
</g>
<g>
</g>
<g>
</g>
</svg>
