<svg height="511pt" viewBox="-19 1 511 511.99986" width="511pt" xmlns="http://www.w3.org/2000/svg"><g fill-rule="evenodd"><path d="m237.515625 27.167969c-86.601563-44.429688-181.046875 2.382812-181.046875 78.449219h362.832031c0-18.769532-10.875-39.863282-41.558593-39.324219-49.714844.878906-59.886719 2.070312-140.226563-39.125zm0 0" fill="#ffcb7c"/><path d="m419.300781 105.617188h-375.210937c-18.472656 0-33.601563 15.113281-33.601563 33.625 0 18.488281 15.128907 33.628906 33.601563 33.628906h385.890625c18.5 0 33.597656-15.140625 33.597656-33.628906 0-18.511719-15.097656-33.625-33.597656-33.625zm0 0" fill="#e6b9a0"/><path d="m423.664062 172.867188h-373.257812l-9.886719 225.289062c-42.523437 73.488281-21.246093 103.855469 23.484375 103.855469h346.089844c44.730469 0 66.007812-30.367188 23.457031-103.855469zm0 0" fill="#c68a65"/><path d="m236.808594 217.949219c-13.542969 0-24.535156 19.109375-24.535156 42.640625 0 8.933594 1.585937 17.210937 4.28125 24.042968 4.8125 3.234376 9.628906 7.175782 14.21875 11.765626 2.152343 2.183593 4.164062 4.394531 6.035156 6.636718 1.871094-2.242187 3.910156-4.453125 6.0625-6.636718 4.585937-4.589844 9.402344-8.53125 14.21875-11.765626 2.691406-6.832031 4.277344-15.109374 4.277344-24.042968 0-23.53125-10.988282-42.640625-24.558594-42.640625zm0 0" fill="#ffc15a"/><path d="m216.554688 284.632812c-15.328126-10.320312-30.484376-13.269531-37.621094-6.125-8.328125 8.335938-2.945313 27.589844 11.8125 45.277344 11.246094.398438 26.601562 8.367188 40.027344 21.804688 2.152343 2.15625 4.164062 4.367187 6.035156 6.605468v-49.164062c-1.871094-2.238281-3.882813-4.449219-6.035156-6.632812-4.589844-4.589844-9.40625-8.53125-14.21875-11.765626zm0 0" fill="#ffc15a"/><path d="m178.933594 327.699219c-9.378906 9.386719-1.386719 32.605469 17.875 51.886719 10.394531 10.375 21.925781 17.492187 31.8125 20.382812 2.351562 1.050781 5.125 1.503906 8.1875 1.417969v-49.191407c-1.871094-2.238281-3.882813-4.449218-6.035156-6.605468-13.425782-13.4375-28.78125-21.40625-40.027344-21.800782-4.875-.171874-8.980469 1.074219-11.8125 3.910157zm0 0" fill="#ffc15a"/><path d="m282.898438 323.789062c-11.246094.394532-26.601563 8.363282-40.027344 21.800782-2.152344 2.15625-4.191406 4.367187-6.0625 6.605468v49.191407c3.089844.085937 5.863281-.367188 8.1875-1.417969 9.914062-2.890625 21.445312-10.007812 31.839844-20.382812 19.265624-19.28125 27.253906-42.5 17.875-51.886719-2.832032-2.835938-6.9375-4.082031-11.8125-3.910157zm0 0" fill="#ffc15a"/><path d="m257.09375 284.632812c-4.816406 3.230469-9.632812 7.171876-14.222656 11.765626-2.152344 2.183593-4.191406 4.394531-6.0625 6.632812v49.164062c1.871094-2.238281 3.910156-4.449218 6.0625-6.605468 13.429687-13.4375 28.78125-21.40625 40.027344-21.804688 14.757812-17.691406 20.140624-36.941406 11.8125-45.277344-7.136719-7.144531-22.292969-4.195312-37.617188 6.125zm0 0" fill="#ffc15a"/></g><path d="m434.09375 182.660156c22.113281-2.082031 39.476562-20.753906 39.476562-43.417968 0-24.046876-19.554687-43.613282-43.589843-43.613282h-1.546875c-1.785156-10.1875-6.320313-19.1875-13.210938-25.960937-9.171875-9.015625-22.191406-13.625-37.65625-13.363281l-3.378906.0625c-46.242188.835937-55.859375 1.011718-132.113281-38.089844-48.132813-24.691406-103.714844-24.34375-145.058594.914062-29.054687 17.746094-46.898437 45.21875-50.035156 76.433594h-2.890625c-24.035156 0-43.589844 19.566406-43.589844 43.617188 0 22.664062 17.363281 41.335937 39.476562 43.417968l-9.332031 212.632813c-23.359375 41.089843-29.097656 72.496093-17.058593 93.375 6.140624 10.644531 19.867187 23.332031 50.417968 23.332031h346.089844c30.550781 0 44.28125-12.6875 50.417969-23.332031 12.035156-20.878907 6.285156-52.292969-17.085938-93.378907zm-413.613281-43.417968c0-13.03125 10.589843-23.632813 23.609375-23.632813h153.03125c5.515625 0 9.988281-4.472656 9.988281-9.992187 0-5.515626-4.472656-9.988282-9.988281-9.988282h-130.019532c3.101563-24.117187 17.410157-45.386718 40.328126-59.386718 35.445312-21.652344 83.542968-21.722657 125.527343-.183594 80.722657 41.390625 93.617188 41.152344 141.59375 40.285156l3.371094-.0625c10.101563-.175781 17.960937 2.394531 23.296875 7.636719 3.078125 3.023437 5.363281 7.074219 6.707031 11.707031h-130.976562c-5.515625 0-9.988281 4.476562-9.988281 9.992188 0 5.515624 4.472656 9.988281 9.988281 9.988281h153.03125c13.019531 0 23.609375 10.605469 23.609375 23.636719s-10.589844 23.632812-23.609375 23.632812h-385.890625c-13.019532.003906-23.609375-10.597656-23.609375-23.632812zm422.71875 339.445312c-6.351563 11.019531-21.507813 13.332031-33.105469 13.332031h-346.089844c-11.597656 0-26.753906-2.3125-33.109375-13.332031-8.1875-14.195312-1.699219-41.019531 18.269531-75.527344.808594-1.394531 1.265626-2.960937 1.335938-4.566406l9.464844-215.734375h354.136718l9.46875 215.734375c.070313 1.609375.527344 3.175781 1.332032 4.566406 19.984375 34.511719 26.484375 61.335938 18.296875 75.527344zm0 0"/><path d="m301.777344 271.449219c-7.039063-7.046875-17.875-8.707031-30.65625-4.78125.148437-2.007813.238281-4.035157.238281-6.078125 0-29.511719-15.175781-52.632813-34.550781-52.632813-19.359375 0-34.523438 23.121094-34.523438 52.632813 0 2.042968.089844 4.070312.238282 6.078125-12.78125-3.925781-23.621094-2.265625-30.65625 4.78125-10.191407 10.199219-8.859376 28.121093 2.671874 46.917969-.9375.683593-1.835937 1.433593-2.671874 2.273437-13.707032 13.714844-6.019532 42.089844 17.882812 66.015625 11.105469 11.082031 23.675781 19.132812 35.472656 22.726562.519532.210938 1.054688.402344 1.59375.582032v26.410156c0 5.515625 4.472656 9.988281 9.992188 9.988281 5.515625 0 9.988281-4.472656 9.988281-9.988281v-26.40625c.546875-.179688 1.085937-.371094 1.609375-.589844 11.808594-3.59375 24.382812-11.640625 35.496094-22.730468 23.894531-23.917969 31.582031-52.292969 17.875-66.007813-.835938-.839844-1.730469-1.589844-2.671875-2.273437 11.53125-18.800782 12.867187-36.71875 2.671875-46.917969zm-14.132813 14.121093c2.511719 2.511719 1.015625 14.285157-9.957031 28.730469-2.710938.441407-5.527344 1.144531-8.445312 2.152344-7.394532 2.550781-15.085938 6.839844-22.441407 12.445313v-22.121094c.976563-1.078125 2.015625-2.175782 3.132813-3.308594 4.023437-4.023438 8.359375-7.597656 12.707031-10.527344.007813-.003906.015625-.007812.019531-.015625 4.453125-2.996093 8.921875-5.324219 13.101563-6.765625 6.371093-2.203125 10.625-1.847656 11.882812-.589844zm-50.835937-57.632812c5.800781 0 14.570312 13.023438 14.570312 32.652344 0 6.296875-.910156 12.339844-2.628906 17.675781-4.089844 2.964844-8.101562 6.34375-11.929688 10.066406-3.820312-3.722656-7.832031-7.101562-11.929687-10.070312-1.71875-5.335938-2.625-11.378907-2.625-17.671875 0-19.628906 8.753906-32.652344 14.542969-32.652344zm-50.808594 57.632812c1.257812-1.257812 5.515625-1.613281 11.886719.589844 4.128906 1.425782 8.542969 3.714844 12.941406 6.65625.042969.03125.085937.0625.132813.09375 4.355468 2.929688 8.6875 6.496094 12.699218 10.503906 1.089844 1.105469 2.144532 2.226563 3.15625 3.355469v22.109375c-7.347656-5.597656-15.027344-9.878906-22.414062-12.425781-2.917969-1.007813-5.734375-1.710937-8.445313-2.152344-10.972656-14.445312-12.46875-26.21875-9.957031-28.730469zm17.875 86.953126c-18.058594-18.074219-20.757812-34.878907-17.875-37.761719 1.261719-1.261719 5.515625-1.617188 11.886719.578125 8.265625 2.851562 17.675781 9.160156 25.820312 17.3125 1.0625 1.058594 2.097657 2.164062 3.109375 3.289062v32.769532c-7.507812-3.195313-15.640625-8.902344-22.941406-16.1875zm65.90625-.007813c-7.3125 7.296875-15.460938 13.007813-22.980469 16.203125v-32.773438c.992188-1.09375 2.039063-2.191406 3.136719-3.292968 8.144531-8.152344 17.554688-14.460938 25.820312-17.3125 6.371094-2.195313 10.628907-1.839844 11.886719-.578125 2.882813 2.882812.183594 19.6875-17.863281 37.753906zm0 0"/><path d="m237.035156 115.609375h.199219c5.515625 0 9.988281-4.472656 9.988281-9.992187 0-5.515626-4.472656-9.988282-9.988281-9.988282h-.199219c-5.519531 0-9.988281 4.472656-9.988281 9.988282 0 5.519531 4.46875 9.992187 9.988281 9.992187zm0 0"/></svg>