<svg id="Capa_1" enable-background="new 0 0 512 512" height="512" viewBox="0 0 512 512" width="512" xmlns="http://www.w3.org/2000/svg"><g><g><path d="m185.26 317.034c-39.055 0-70.715-31.66-70.715-70.715 0-59.602 31.66-131.327 70.715-131.327s70.715 71.725 70.715 131.327c-.001 39.055-31.661 70.715-70.715 70.715z" fill="#e7a561"/></g><g><path d="m114.545 246.319c0-40.337 14.503-86.22 35.984-111.671 12.74 9.397 24.258 23.894 33.864 42.948.296.588.575 1.199.867 1.794.292-.595.57-1.206.867-1.794 9.606-19.053 21.124-33.551 33.864-42.948 21.48 25.451 35.984 71.334 35.984 111.671 0 39.055-31.66 70.715-70.715 70.715s-70.715-31.66-70.715-70.715z" fill="#e49542"/></g><g><path d="m326.689 317.034c39.055 0 70.715-31.66 70.715-70.715 0-59.602-31.66-131.327-70.715-131.327s-70.715 71.725-70.715 131.327c0 39.055 31.66 70.715 70.715 70.715z" fill="#e7a561"/></g><g><path d="m397.404 246.319c0-40.337-14.503-86.22-35.984-111.671-12.74 9.397-24.258 23.894-33.864 42.948-.296.588-.575 1.199-.867 1.794-.292-.595-.57-1.206-.867-1.794-9.606-19.053-21.124-33.551-33.864-42.948-21.48 25.451-35.984 71.334-35.984 111.671 0 39.055 31.66 70.715 70.715 70.715s70.715-31.66 70.715-70.715z" fill="#e49542"/></g><g><path d="m255.974 346.33c39.055 0 70.715-31.66 70.715-70.715 0-59.602-31.66-131.327-70.715-131.327s-70.715 71.725-70.715 131.327c.001 39.055 31.661 70.715 70.715 70.715z" fill="#f1d0a5"/></g><g><path d="m326.683 273.446c-.624-49.014-22.263-105.464-51.608-123.385 13.149 25.538 21.315 58.922 21.315 89.186 0 3.995-.336 7.911-.977 11.724-.821 4.885-5.023 8.48-9.977 8.48h-99.427c-.486 5.444-.742 10.852-.742 16.163 0 38.834 31.304 70.358 70.055 70.712 39.863.365 71.869-33.019 71.361-72.88z" fill="#f1b986"/></g><g><path d="m397.404 346.33c39.055 0 70.715-31.66 70.715-70.715 0-59.602-31.66-131.327-70.715-131.327s-70.715 71.725-70.715 131.327c0 39.055 31.66 70.715 70.715 70.715z" fill="#f1d0a5"/></g><g><path d="m468.105 273.446c-.624-49.014-22.263-105.464-51.608-123.385 13.149 25.538 21.315 58.922 21.315 89.186 0 3.995-.336 7.911-.977 11.724-.821 4.885-5.023 8.48-9.977 8.48h-99.427c-.486 5.444-.742 10.852-.742 16.163 0 38.834 31.304 70.358 70.055 70.712 39.863.365 71.868-33.019 71.361-72.88z" fill="#f1b986"/></g><g><path d="m114.545 346.33c-39.055 0-70.715-31.66-70.715-70.715 0-59.602 31.66-131.327 70.715-131.327s70.715 71.725 70.715 131.327c0 39.055-31.66 70.715-70.715 70.715z" fill="#f1d0a5"/></g><g><path d="m185.254 273.446c-.624-49.014-22.263-105.464-51.608-123.385 13.149 25.538 21.315 58.922 21.315 89.186 0 3.995-.336 7.911-.977 11.724-.821 4.885-5.023 8.48-9.977 8.48h-99.427c-.486 5.444-.742 10.852-.742 16.163 0 38.834 31.304 70.358 70.055 70.712 39.863.365 71.868-33.019 71.361-72.88z" fill="#f1b986"/></g><g><path d="m43.83 316.024 8.996 71.968c.632 5.055 4.929 8.849 10.024 8.849h104.42c4.636 0 8.676-3.155 9.8-7.652l2.309-9.235c1.53-6.122 10.23-6.122 11.761 0l2.309 9.235c1.124 4.497 5.165 7.652 9.8 7.652h105.451c4.635 0 8.676-3.155 9.8-7.652l2.309-9.235c1.53-6.122 10.23-6.122 11.761 0l2.309 9.235c1.124 4.497 5.165 7.652 9.8 7.652h104.42c5.095 0 9.392-3.794 10.024-8.849l8.996-71.968z" fill="#b78b7a"/></g><g><path d="m441.853 316.024-10.102 80.817h17.348c5.095 0 9.392-3.794 10.024-8.849l8.996-71.968z" fill="#aa7a63"/></g><g><path d="m494.384 316.024h-476.819c-5.579 0-10.102-4.523-10.102-10.102v-12.123c0-5.579 4.523-10.102 10.102-10.102h476.819c5.579 0 10.102 4.523 10.102 10.102v12.123c0 5.579-4.523 10.102-10.102 10.102z" fill="#c19d8e"/></g><g><path d="m494.384 283.697h-24.245c5.579 0 10.102 4.523 10.102 10.102v12.123c0 5.579-4.523 10.102-10.102 10.102h24.245c5.579 0 10.102-4.523 10.102-10.102v-12.123c0-5.579-4.523-10.102-10.102-10.102z" fill="#b78b7a"/></g><path d="m494.4 276.28h-18.778c.001-.193.008-.387.008-.58 0-64.196-34.164-138.82-78.21-138.82-7.304 0-14.334 2.062-20.983 5.779-14.31-22.689-31.773-35.079-49.727-35.079s-35.417 12.39-49.727 35.079c-6.65-3.716-13.68-5.779-20.983-5.779s-14.334 2.062-20.983 5.779c-14.31-22.689-31.773-35.079-49.727-35.079s-35.417 12.39-49.727 35.079c-6.65-3.716-13.68-5.779-20.983-5.779-16.89 0-33.172 10.73-47.086 31.03-2.342 3.417-1.471 8.084 1.946 10.426 3.417 2.343 8.085 1.472 10.426-1.946 7.665-11.182 19.909-24.51 34.714-24.51 14.963 0 30.746 14.283 43.302 39.187 12.466 24.725 19.908 56.364 19.908 84.634 0 .192-.015.387-.017.58h-126.386c-.002-.192-.017-.388-.017-.58 0-22.759 4.725-47.514 13.305-69.706 1.494-3.863-.427-8.206-4.291-9.7-3.862-1.494-8.206.427-9.7 4.291-9.23 23.874-14.314 50.55-14.314 75.114 0 .192.007.387.008.58h-18.778c-9.705 0-17.6 7.896-17.6 17.6v12.12c0 9.705 7.896 17.6 17.6 17.6h19.648l8.169 65.398c1.098 8.792 8.609 15.421 17.473 15.421h104.41c8.096 0 15.119-5.483 17.076-13.331l.914-3.655.913 3.652c1.958 7.851 8.981 13.334 17.077 13.334h35.17c4.142 0 7.5-3.358 7.5-7.5s-3.358-7.5-7.5-7.5h-35.17c-1.197 0-2.234-.808-2.524-1.969l-2.31-9.24c-1.536-6.144-6.822-10.271-13.156-10.271s-11.62 4.127-13.156 10.271l-2.311 9.244c-.289 1.157-1.327 1.965-2.523 1.965h-104.41c-1.313 0-2.426-.98-2.588-2.28l-7.937-63.54h407.27l-7.937 63.541c-.162 1.299-1.275 2.279-2.588 2.279h-104.41c-1.197 0-2.235-.808-2.524-1.969l-2.31-9.24c-1.536-6.144-6.822-10.271-13.156-10.271s-11.62 4.127-13.156 10.271l-2.311 9.244c-.289 1.157-1.326 1.965-2.523 1.965h-35.17c-4.142 0-7.5 3.358-7.5 7.5s3.358 7.5 7.5 7.5h35.17c8.096 0 15.118-5.483 17.076-13.331l.914-3.655.913 3.652c1.958 7.851 8.981 13.334 17.077 13.334h104.41c8.864 0 16.375-6.63 17.473-15.42l8.169-65.399h19.648c9.705 0 17.6-7.896 17.6-17.6v-12.12c0-9.705-7.896-17.6-17.6-17.6zm-167.69-153.7c12.847 0 26.073 10.25 37.621 29.004-16.601 15.352-29.877 41.131-37.621 69.621-7.744-28.49-21.02-54.269-37.621-69.621 11.548-18.754 24.774-29.004 37.621-29.004zm-27.408 68.486c12.466 24.725 19.908 56.364 19.908 84.634 0 .192-.015.387-.017.58h-126.386c-.002-.192-.017-.388-.017-.58 0-28.27 7.442-59.909 19.908-84.634 12.556-24.903 28.339-39.187 43.302-39.187s30.746 14.284 43.302 39.187zm-151.633-39.482c11.548-18.754 24.774-29.004 37.621-29.004s26.073 10.25 37.621 29.004c-16.601 15.352-29.877 41.131-37.621 69.621-7.744-28.491-21.02-54.269-37.621-69.621zm349.331 154.416c0 1.434-1.167 2.6-2.6 2.6h-476.8c-1.434 0-2.6-1.167-2.6-2.6v-12.12c0-1.434 1.167-2.6 2.6-2.6h386.34c4.142 0 7.5-3.358 7.5-7.5s-3.358-7.5-7.5-7.5h-69.713c-.002-.192-.017-.388-.017-.58 0-28.27 7.442-59.909 19.908-84.634 12.556-24.903 28.339-39.187 43.302-39.187 14.966 0 30.75 14.283 43.306 39.187 12.463 24.723 19.904 56.361 19.904 84.634 0 .192-.015.387-.017.58h-21.573c-4.142 0-7.5 3.358-7.5 7.5s3.358 7.5 7.5 7.5h55.36c1.434 0 2.6 1.167 2.6 2.6z"/></g></svg>