<?xml version="1.0" encoding="iso-8859-1"?>
<!-- Generator: Adobe Illustrator 19.0.0, SVG Export Plug-In . SVG Version: 6.00 Build 0)  -->
<svg version="1.1" id="Layer_1" xmlns="http://www.w3.org/2000/svg" xmlns:xlink="http://www.w3.org/1999/xlink" x="0px" y="0px"
	 viewBox="0 0 512 512" style="enable-background:new 0 0 512 512;" xml:space="preserve">
<rect x="7.868" y="392.069" style="fill:#3FA9F5;" width="496.263" height="24.013"/>
<rect x="7.868" y="392.069" style="fill:#2F7FB8;" width="392.206" height="24.013"/>
<g>
	<path style="fill:#D9E021;" d="M344.075,103.937c-6.694-5.038-15.019-8.023-24.042-8.023c-9.012,0-17.326,2.978-24.016,8.003
		l24.016,32.018L344.075,103.937z"/>
	<path style="fill:#D9E021;" d="M216.008,103.937c-6.694-5.038-15.018-8.023-24.042-8.023c-9.012,0-17.326,2.978-24.016,8.003
		l24.016,32.018L216.008,103.937z"/>
</g>
<path style="fill:#FCEE21;" d="M64.02,392.378v-232.43c0-35.365,28.608-64.034,63.973-64.034s64.004,28.669,64.004,64.034
	c0-35.365,28.653-64.034,64.018-64.034s64.027,28.669,64.027,64.034c0-35.365,28.604-64.034,63.969-64.034
	s63.969,28.669,63.969,64.034v232.43"/>
<g>
	<path style="fill:#D9E021;" d="M384.007,95.914c-4.108,0-8.202,0.425-12.095,1.163c29.619,5.625,51.939,31.614,51.939,62.871
		v232.43h24.129v-232.43C447.979,124.583,419.372,95.914,384.007,95.914z"/>
	<path style="fill:#D9E021;" d="M256.02,95.914c-4.108,0-8.202,0.425-12.095,1.163c29.619,5.625,51.939,31.614,51.939,62.871v232.43
		h24.129v-232.43C319.993,124.583,291.386,95.914,256.02,95.914z"/>
	<path style="fill:#D9E021;" d="M128.034,95.914c-4.108,0-8.202,0.425-12.095,1.163c29.619,5.625,51.939,31.614,51.939,62.871
		v232.43h24.129v-232.43C192.006,124.583,163.399,95.914,128.034,95.914z"/>
</g>
<g>
	<rect x="183.619" y="247.612" style="fill:#FFFFFF;" width="15.736" height="112.251"/>
	<path style="fill:#FFFFFF;" d="M103.884,240.263H88.148v-80.316c0-21.918,17.834-39.749,39.865-39.749v15.736
		c-13.638,0-24.129,10.773-24.129,24.013V240.263z"/>
	<rect x="88.153" y="256.004" style="fill:#FFFFFF;" width="15.736" height="32.521"/>
	<path style="fill:#FFFFFF;" d="M287.881,152.141h-15.736c0-9.442-7.242-16.145-16.145-16.145c-8.903,0-16.145,6.704-16.145,16.145
		h-15.736c0-17.834,14.302-31.881,31.881-31.881S287.881,134.307,287.881,152.141z"/>
	<path style="fill:#FFFFFF;" d="M415.948,152.141h-15.736c0-9.442-6.784-16.342-16.226-16.342v-15.736
		C401.82,120.062,415.948,134.307,415.948,152.141z"/>
	<rect x="183.619" y="200.403" style="fill:#FFFFFF;" width="15.736" height="31.472"/>
	<rect x="312.644" y="319.987" style="fill:#FFFFFF;" width="15.736" height="72.386"/>
</g>
<path d="M456.372,384.203V159.948c0-39.646-32.351-71.901-72.115-71.901c-12.971,0-25.15,3.437-35.679,9.438
	c-8.302-6.173-18.165-9.438-28.544-9.438c-10.37,0-20.226,3.261-28.525,9.425c-10.495-5.992-22.633-9.425-35.559-9.425
	c-12.906,0-25.026,3.419-35.51,9.388c-8.289-6.139-18.124-9.388-28.475-9.388c-10.39,0-20.264,3.273-28.575,9.459
	c-10.52-6.014-22.695-9.459-35.661-9.459c-39.758,0-72.103,32.255-72.103,71.901v224.256H0v39.749h512v-39.749h-55.628V384.203z
	 M320.034,103.783c5.299,0,10.394,1.266,14.98,3.693c-6.073,5.668-11.169,12.363-14.995,19.813
	c-3.816-7.45-8.901-14.147-14.959-19.816C309.645,105.049,314.738,103.783,320.034,103.783z M191.965,103.783
	c5.267,0,10.334,1.249,14.9,3.648c-6.076,5.675-11.177,12.382-15.003,19.847c-3.811-7.432-8.886-14.112-14.929-19.771
	C181.533,105.062,186.648,103.783,191.965,103.783z M71.363,159.948c0-30.97,25.287-56.397,56.367-56.397
	c31.025,0,56.267,25.51,56.267,55.933h15.736c0-30.423,25.219-56.165,56.217-56.165c30.983,0,56.191,25.742,56.191,56.165h0.027
	l0.01,34.621l15.736-0.004l-0.01-35.679c0.581-29.951,25.628-54.873,56.353-54.873c31.088,0,56.379,25.427,56.379,56.397v224.256
	H71.363L71.363,159.948L71.363,159.948z M496.264,408.216H15.736v-8.277h480.528V408.216z"/>
<g>
</g>
<g>
</g>
<g>
</g>
<g>
</g>
<g>
</g>
<g>
</g>
<g>
</g>
<g>
</g>
<g>
</g>
<g>
</g>
<g>
</g>
<g>
</g>
<g>
</g>
<g>
</g>
<g>
</g>
</svg>
