<svg id="Layer_3" enable-background="new 0 0 64 64" height="512" viewBox="0 0 64 64" width="512" xmlns="http://www.w3.org/2000/svg"><g><path d="m55 33-7.652 3.601c-6.156 2.897-12.876 4.399-19.68 4.399-6.376 0-12.684-1.319-18.526-3.875l-6.226-2.724c-.556-.244-.916-.794-.916-1.401 0-.607.36-1.157.916-1.401l6.226-2.724c5.842-2.556 12.15-3.875 18.526-3.875 6.804 0 13.524 1.502 19.68 4.399z" fill="#c1c8d1"/><path d="m46.177 37.132c-2.71 1.184-5.521 2.103-8.393 2.747l.216.121c3.895 1.298 8.105 1.298 12 0z" fill="#e7e4dd"/><path d="m35.151 25.61 4.849-3.75c-3.859-1.327-8.06-1.112-11.773.601l-6.271 2.894c1.89-.236 3.798-.355 5.712-.355 2.514 0 5.017.205 7.483.61z" fill="#d5cec2"/><path d="m25 33h-9.19c-.1.394-.238.776-.41 1.141l.008-.018 9.592 2.877z" fill="#fadfb2"/><path d="m55 33-7.652-3.601c-6.156-2.897-12.876-4.399-19.68-4.399-3.257 0-6.496.344-9.664 1.022l-.004-.022-1.342 2.684c-.433.865-.658 1.82-.658 2.787 0 .522-.065 1.035-.19 1.529z" fill="#758190"/><path d="m11.112 37.933 1.862-1.117c1.877-1.127 3.026-3.156 3.026-5.345 0-.968.225-1.922.658-2.787l1.329-2.659c-3.029.649-5.992 1.602-8.845 2.85l-6.226 2.724c-.556.244-.916.794-.916 1.401 0 .607.36 1.157.916 1.401l6.226 2.724c.651.285 1.308.554 1.97.808z" fill="#e7e4dd"/><path d="m60 33 2 10c-2.649-2.649-4.854-5.708-6.53-9.06l-.47-.94.47-.94c1.676-3.351 3.88-6.41 6.53-9.06z" fill="#d5cec2"/><g><path d="m21 33-.001-1.583c0-.772-.182-1.545-.527-2.236l-.367-.734 1.79-.893.366.733c.483.966.738 2.048.738 3.129v1.583z" fill="#8892a0"/></g><g><path d="m25 33-.001-1.377c0-.97-.155-1.928-.461-2.846l-.487-1.461 1.897-.632.487 1.461c.375 1.123.564 2.293.564 3.479v1.376z" fill="#8892a0"/></g><g><path d="m29 33-.001-1.377c0-.97-.155-1.928-.461-2.846l-.487-1.461 1.897-.632.487 1.461c.375 1.123.564 2.293.564 3.479v1.376z" fill="#8892a0"/></g><g><path d="m33 33-.001-1.377c0-.97-.155-1.928-.461-2.846l-.487-1.461 1.897-.632.487 1.461c.375 1.123.564 2.293.564 3.479v1.376z" fill="#8892a0"/></g><g><path d="m12.5 32.999c-.827 0-1.5-.673-1.5-1.5s.673-1.5 1.5-1.5 1.5.673 1.5 1.5-.673 1.5-1.5 1.5z" fill="#606060"/></g><g><path d="m37 33v-1.052c0-1.186-.19-2.356-.564-3.479l1.897-.633c.442 1.327.667 2.71.667 4.111v1.052z" fill="#8892a0"/></g><g><path d="m61.02 33 1.96-9.804c.086-.432-.12-.87-.509-1.078-.388-.208-.866-.137-1.179.175-2.73 2.73-4.99 5.865-6.717 9.319l-.034.067-6.768-3.185c-3.266-1.537-6.726-2.685-10.27-3.44l3.107-2.403c.291-.225.435-.591.375-.954-.06-.362-.314-.663-.662-.783-4.114-1.414-8.56-1.188-12.517.639l-6.166 2.845c-4.433.567-8.755 1.748-12.901 3.562l-6.227 2.724c-.917.402-1.512 1.311-1.512 2.316s.595 1.914 1.515 2.317l6.227 2.724c6.005 2.627 12.372 3.959 18.926 3.959 3.332 0 6.674-.37 9.944-1.075l.072.024c2.037.679 4.177 1.019 6.316 1.019s4.28-.34 6.316-1.019c.353-.118.611-.421.671-.789s-.09-.737-.387-.96l-2.478-1.858 6.42-3.021.034.067c1.728 3.454 3.987 6.589 6.717 9.319.192.192.448.293.707.293.161 0 .323-.039.471-.118.389-.208.595-.646.509-1.078zm-10.494-1h-11.526v-.053c0-1.4-.225-2.783-.667-4.111l-1.897.633c.374 1.124.564 2.294.564 3.478v.053h-2v-.377c0-1.185-.19-2.354-.564-3.479l-.487-1.46-1.897.633.487 1.46c.306.919.461 1.877.461 2.846v.377h-2v-.377c0-1.185-.19-2.354-.564-3.479l-.487-1.46-1.897.633.487 1.46c.306.919.461 1.877.461 2.846v.377h-2v-.377c0-1.185-.19-2.354-.564-3.479l-.487-1.46-1.897.633.487 1.46c.306.919.461 1.877.461 2.846v.377h-2v-.583c0-1.081-.255-2.164-.739-3.131l-.367-.733-1.789.895.367.732c.345.691.528 1.465.528 2.237v.583h-4.035c.013-.176.035-.351.035-.529 0-.809.191-1.618.553-2.34l1.113-2.226c2.946-.598 5.952-.905 9.002-.905 6.613 0 13.271 1.488 19.255 4.304zm-26.526 2v1.656l-5.519-1.656zm4.646-10.631c2.895-1.336 6.085-1.702 9.157-1.074l-2.941 2.275c-2.383-.37-4.79-.57-7.194-.57-.138 0-.274.009-.412.01zm-25.329 10.116c-.192-.085-.317-.275-.317-.485s.125-.4.317-.485l6.227-2.724c2.152-.942 4.353-1.709 6.594-2.301l-.373.747c-.501.998-.765 2.117-.765 3.234 0 1.827-.974 3.546-2.541 4.487l-1.428.857c-.497-.197-.995-.391-1.488-.606zm10.13 4.213.042-.025c.986-.592 1.792-1.414 2.388-2.366l8.836 2.651c.094.028.191.042.287.042.212 0 .422-.068.597-.198.254-.188.403-.486.403-.802v-3h24.526l-3.604 1.696c-5.983 2.816-12.641 4.304-19.254 4.304-4.875 0-9.641-.779-14.221-2.302zm28.306 2.128c1.45-.452 2.876-.969 4.273-1.557l1.738 1.304c-1.973.419-4.012.502-6.011.253zm18.552-.204c-1.527-1.891-2.847-3.942-3.94-6.128l-.247-.494.247-.493c1.093-2.186 2.413-4.237 3.94-6.128l-1.285 6.425c-.026.13-.026.263 0 .393z"/><path d="m12.5 33c.827 0 1.5-.673 1.5-1.5s-.673-1.5-1.5-1.5-1.5.673-1.5 1.5.673 1.5 1.5 1.5z"/></g></g></svg>