<svg height="483pt" viewBox="-1 0 483 483.52173" width="483pt" xmlns="http://www.w3.org/2000/svg"><path d="m95.566406 131.523438c2.863282-8.601563 4.007813-17.679688 3.359375-26.722657-.34375-5.511719-1.335937-10.960937-2.960937-16.238281l.320312-5.039062h-64l-.320312 4.476562c3.421875 11.085938 4.082031 22.84375 1.917968 34.242188-.5625 3.148437-1.363281 6.25-2.398437 9.28125zm0 0" fill="#ffde55"/><path d="m203.085938 110.082031 265.4375-71.121093-8.320313-30.960938-262.878906 70.480469 2.640625 10.082031c2.148437 6.96875 3.199218 14.226562 3.121094 21.519531zm0 0" fill="#aa6100"/><path d="m135.484375 131.523438h64.082031c4.554688-13.9375 4.695313-28.941407.398438-42.960938l-2.640625-10.082031-5.039063-18.957031h-64l7.679688 28.476562c.640625 2.082031 1.199218 4.242188 1.679687 6.402344 2.574219 12.347656 1.828125 25.15625-2.160156 37.121094zm0 0" fill="#ffde55"/><path d="m24.125 211.601562.078125.160157c10.132813 19.976562 10.191406 43.574219.160156 63.601562l-.238281.476563c-10 19.9375-10 43.425781 0 63.363281l3.441406 6.957031c8.171875 16.273438 9.75 35.074219 4.398438 52.480469l-23.679688 76.882813h64l23.679688-76.882813c5.351562-17.40625 3.773437-36.207031-4.398438-52.480469l-3.441406-6.957031c-10-19.9375-10-43.425781 0-63.363281l.238281-.476563c4.914063-9.84375 7.484375-20.683593 7.519531-31.679687.007813-11.101563-2.625-22.039063-7.679687-31.921875-7.496094-14.914063-9.507813-31.992188-5.679687-48.238281h-64.078126c-3.832031 16.195312-1.820312 33.222656 5.679688 48.078124zm0 0" fill="#ffde55"/><path d="m95.566406 131.523438h39.917969c3.988281-11.964844 4.734375-24.773438 2.160156-37.121094l-38.71875 10.398437c.648438 9.042969-.496093 18.121094-3.359375 26.722657zm0 0" fill="#aa6100"/><path d="m128.125 211.601562.078125.160157c10.132813 19.976562 10.191406 43.574219.160156 63.601562l-.238281.476563c-10 19.9375-10 43.425781 0 63.363281l3.441406 6.957031c8.171875 16.273438 9.75 35.074219 4.398438 52.480469l-23.679688 76.882813h64l23.679688-76.882813c5.351562-17.40625 3.773437-36.207031-4.398438-52.480469l-3.441406-6.957031c-10-19.9375-10-43.425781 0-63.363281l.238281-.476563c4.914063-9.84375 7.484375-20.683593 7.519531-31.679687.007813-11.101563-2.625-22.039063-7.679687-31.921875-7.496094-14.914063-9.507813-31.992188-5.679687-48.238281h-64.078126c-3.832031 16.195312-1.820312 33.222656 5.679688 48.078124zm0 0" fill="#ffde55"/><path d="m33.882812 122.242188-21.839843 5.839843.960937 3.441407h18.480469c1.035156-3.03125 1.835937-6.132813 2.398437-9.28125zm0 0" fill="#ff9478"/><path d="m135.484375 131.523438h-127.199219v32h464v-32zm0 0" fill="#aa6100"/><path d="m472.285156 123.523438h-262.488281c.421875-2.402344.800781-4.800782.992187-7.203126l259.808594-69.597656c2.0625-.542968 3.824219-1.886718 4.894532-3.734375 1.066406-1.847656 1.351562-4.046875.792968-6.105469l-8.351562-30.960937c-1.148438-4.265625-5.535156-6.792969-9.800782-5.648437l-255.144531 68.410156-2.96875-11.203125c-.925781-3.511719-4.101562-5.957031-7.734375-5.957031h-64c-2.492187-.003907-4.839844 1.15625-6.355468 3.132812-1.515626 1.976562-2.023438 4.546875-1.371094 6.953125l7.324218 27.128906-22 5.910157c-.710937-5.597657-1.542968-11.304688-1.6875-12.292969-.578124-3.925781-3.945312-6.832031-7.910156-6.832031h-64c-2.3125-.003907-4.511718.996093-6.03125 2.738281-1.519531 1.742187-2.210937 4.058593-1.898437 6.347656 1.460937 10.378906 2.160156 20.855469 2.097656 31.335937l-16.480469 4.410157c-2.0625.554687-3.816406 1.910156-4.871094 3.765625v.097656c-2.914062 1.261719-4.804687 4.128906-4.816406 7.304688v32c0 4.417968 3.582032 8 8 8h.800782c-1.621094 15.085937 1.15625 30.320312 8 43.863281 8.960937 17.90625 8.925781 38.996093-.097657 56.871093-11.074219 22.1875-11.074219 48.292969 0 70.480469l3.464844 7.015625c7.257813 14.441406 8.632813 31.132813 3.832031 46.566406l-23.679687 76.882813c-.738281 2.425781-.277344 5.058594 1.238281 7.09375s3.902344 3.230469 6.441406 3.226563h64c3.511719 0 6.613282-2.292969 7.648438-5.648438l23.679687-76.882812c5.996094-19.363282 4.25-40.296876-4.871093-58.398438l-3.464844-7.007812c-8.875-17.878907-8.785156-38.898438.246094-56.695313 5.449218-10.9375 8.308593-22.980469 8.359374-35.199219-.003906-12.351562-2.929687-24.523437-8.535156-35.53125-5.679687-11.316406-7.820312-24.085937-6.136718-36.636718h23.875c-1.621094 15.085937 1.15625 30.320312 8 43.863281 8.960937 17.90625 8.925781 38.996093-.097657 56.871093-11.074219 22.1875-11.074219 48.292969 0 70.480469l3.464844 7.015625c7.257813 14.441406 8.632813 31.132813 3.832031 46.566406l-23.679687 76.882813c-.738281 2.425781-.277344 5.058594 1.238281 7.09375s3.902344 3.230469 6.441406 3.226563h64c3.511719 0 6.613282-2.292969 7.648438-5.648438l23.679687-76.882812c5.996094-19.363282 4.25-40.296876-4.871093-58.398438l-3.464844-7.007812c-8.875-17.878907-8.785156-38.898438.246094-56.695313 5.449218-10.9375 8.308593-22.980469 8.359374-35.199219-.003906-12.351562-2.929687-24.523437-8.535156-35.53125-5.679687-11.316406-7.820312-24.085937-6.136718-36.636718h279.074218c4.417969 0 8-3.582032 8-8v-32c0-4.421876-3.582031-8-8-8zm-17.726562-105.730469 4.167968 15.511719-248.257812 66.519531c-.550781-4.550781-3.390625-15.679688-3.390625-15.679688zm-268.425782 49.730469 6.152344 23.390624c1.90625 6.179688 2.839844 12.621094 2.765625 19.085938-.089843 4.558594-.667969 9.089844-1.726562 13.523438h-47.558594c1.898437-10.203126 1.792969-20.675782-.3125-30.832032l-.082031-.363281c-.511719-2.246094-1.085938-4.476563-1.679688-6.398437l-4.957031-18.398438zm-79.082031 43.382812 23.914063-6.402344c.417968 6.386719-.132813 12.796875-1.640625 19.019532h-23.558594c.773437-4.164063 1.207031-8.382813 1.285156-12.617188zm-17.71875-19.382812c.695313 5.054687 1.449219 11.054687 1.601563 13.839843.433594 6.089844-.054688 12.210938-1.441406 18.160157h-47.71875v-.226563c1.039062-10.574219.875-21.234375-.488282-31.773437zm-8.246093 123.878906c4.460937 8.757812 6.792968 18.449218 6.796874 28.28125-.0625 9.929687-2.425781 19.710937-6.902343 28.574218-11.074219 22.1875-11.074219 48.292969 0 70.480469l3.464843 7.015625c7.261719 14.4375 8.640626 31.132813 3.839844 46.566406l-21.90625 71.203126h-47.261718l20.496093-66.53125c5.996094-19.363282 4.25-40.296876-4.871093-58.398438l-3.464844-7.007812c-8.871094-17.875-8.78125-38.890626.246094-56.6875 11.105468-22.371094 11.007812-48.667969-.261719-70.953126-5.667969-11.246093-7.804688-23.941406-6.128907-36.421874h48c-1.621093 15.085937 1.140626 30.320312 7.953126 43.878906zm104 0c4.460937 8.757812 6.792968 18.449218 6.796874 28.28125-.0625 9.929687-2.425781 19.710937-6.902343 28.574218-11.074219 22.1875-11.074219 48.292969 0 70.480469l3.464843 7.015625c7.261719 14.4375 8.640626 31.132813 3.839844 46.566406l-21.90625 71.203126h-47.261718l20.496093-66.53125c5.996094-19.363282 4.25-40.296876-4.871093-58.398438l-3.464844-7.007812c-8.871094-17.875-8.78125-38.890626.246094-56.6875 11.105468-22.371094 11.007812-48.667969-.261719-70.953126-5.667969-11.246093-7.804688-23.941406-6.128907-36.421874h48c-1.621093 15.085937 1.140626 30.320312 7.953126 43.878906zm279.199218-59.878906h-448v-16h448zm0 0"/></svg>