<?xml version="1.0" encoding="iso-8859-1"?>
<!-- Generator: Adobe Illustrator 19.0.0, SVG Export Plug-In . SVG Version: 6.00 Build 0)  -->
<svg version="1.1" id="Capa_1" xmlns="http://www.w3.org/2000/svg" xmlns:xlink="http://www.w3.org/1999/xlink" x="0px" y="0px"
	 viewBox="0 0 512 512" style="enable-background:new 0 0 512 512;" xml:space="preserve">
<path style="fill:#FF7D46;" d="M209.539,472.918c-17.141,0-33.939-7.555-48.576-21.848c-29.218-28.531-47.37-81.428-47.37-138.046
	c0-56.619,18.151-109.523,47.369-138.065c14.641-14.288,31.439-21.839,48.576-21.839c2.573,0,5.156,0.171,7.678,0.508
	c14.565,1.905,28.325,9.09,40.887,21.35l0.909,0.886v274.32l-0.908,0.886C243.467,465.363,226.673,472.918,209.539,472.918z"/>
<path style="fill:#44C973;" d="M253.897,179.288c-11.609-11.33-24.217-17.955-37.47-19.689l-3.651-0.478l41.556-121.453
	l43.851,25.125l-13.121,99.23l-1.695,0.632c-8.848,3.306-17.347,8.902-25.264,16.631L256,181.341L253.897,179.288z"/>
<g>
	<path style="fill:#FF7D46;" d="M395.395,472.918c-17.13,0-33.923-7.551-48.565-21.838l-2.208-2.154l2.207-2.155
		c28.099-27.448,45.554-78.697,45.554-133.746c0-55.059-17.455-106.307-45.554-133.745l-2.207-2.154l2.207-2.154
		c14.638-14.294,31.432-21.849,48.566-21.849c26.278,0,53.609,17.21,74.985,47.217c22.308,31.314,34.593,71.334,34.593,112.686
		c0,41.349-12.285,81.364-34.593,112.678C449.004,455.707,421.672,472.918,395.395,472.918z"/>
	<path style="fill:#FF7D46;" d="M116.605,472.918c-26.278,0-53.608-17.21-74.985-47.216C19.312,394.387,7.027,354.371,7.027,313.023
		c0-41.352,12.285-81.372,34.593-112.687c21.375-30.007,48.707-47.217,74.985-47.217c17.119,0,33.912,7.55,48.565,21.837l2.21,2.154
		l-2.208,2.156c-28.1,27.449-45.555,78.701-45.555,133.757c0,55.053,17.455,106.298,45.554,133.736l2.206,2.154l-2.206,2.154
		C150.545,465.362,133.75,472.918,116.605,472.918z"/>
	<path style="fill:#FF7D46;" d="M302.462,472.918c-17.134,0-33.928-7.555-48.565-21.848l-0.909-0.886v-274.32l0.908-0.886
		c8.519-8.318,17.726-14.363,27.362-17.964c6.899-2.584,14.034-3.895,21.203-3.895c17.142,0,33.939,7.556,48.576,21.849
		c29.218,28.531,47.369,81.431,47.369,138.055c0,56.614-18.151,109.514-47.369,138.055
		C336.396,465.366,319.598,472.918,302.462,472.918z"/>
</g>
<path d="M116.605,479.945c16.295,0,32.199-6.073,46.464-17.621c14.272,11.548,30.178,17.621,46.47,17.621
	c16.284,0,32.191-6.055,46.461-17.6c14.271,11.545,30.178,17.6,46.462,17.6c16.289,0,32.194-6.07,46.472-17.616
	c14.276,11.545,30.179,17.616,46.462,17.616c28.58,0,57.997-18.284,80.708-50.166C499.251,397.285,512,355.82,512,313.023
	c0-42.801-12.749-84.268-35.896-116.764c-22.712-31.883-52.129-50.168-80.709-50.168c-16.287,0-32.189,6.073-46.461,17.623
	c-14.273-11.55-30.179-17.623-46.472-17.623c-2.768,0-5.529,0.187-8.275,0.533l10.698-80.906c0.534-4.04-1.426-8.001-4.961-10.027
	L260.99,33.384c-2.599-1.489-5.728-1.741-8.531-0.684c-2.803,1.056-4.988,3.31-5.958,6.144l-36.696,107.251
	c-0.088,0-0.178-0.004-0.266-0.004c-16.289,0-32.195,6.071-46.474,17.618c-14.283-11.546-30.185-17.618-46.46-17.618
	c-28.58,0-57.998,18.285-80.709,50.168C12.749,228.754,0,270.222,0,313.023c0,42.797,12.749,84.262,35.897,116.756
	C58.609,461.661,88.026,479.945,116.605,479.945z M170.081,441.731c-26.793-26.163-43.437-75.481-43.437-128.709
	c0-53.15,16.596-102.405,43.315-128.604c0.012-0.011,0.024-0.02,0.036-0.031c0.037-0.035,0.068-0.074,0.104-0.109
	c12.148-11.846,25.786-18.108,39.439-18.108c1.997,0,3.997,0.133,5.976,0.398c0.002,0,0.004,0.001,0.006,0.001
	c0.012,0.002,0.024,0.004,0.036,0.005c10.581,1.394,20.791,6.423,30.405,14.941v263.012c-11.368,10.043-23.886,15.341-36.422,15.341
	C195.874,459.867,182.231,453.595,170.081,441.731z M459.75,207.908c20.746,29.124,32.172,66.454,32.172,105.115
	c0,38.657-11.426,75.984-32.172,105.106c-18.618,26.135-42.676,41.738-64.355,41.738c-10.942,0-21.873-4.035-32.04-11.737
	c26.5-31.179,42.079-80.679,42.079-135.107c0-29.145-4.625-57.798-13.374-82.862c-7.181-20.569-17.015-38.403-28.718-52.24
	c10.169-7.712,21.105-11.752,32.053-11.752C417.074,166.169,441.132,181.773,459.75,207.908z M341.919,184.305L341.919,184.305
	c26.793,26.163,43.437,75.485,43.437,128.718c0,53.212-16.638,102.524-43.417,128.698c-0.036,0.035-0.074,0.064-0.109,0.099
	c-0.011,0.011-0.02,0.024-0.031,0.035c-12.122,11.782-25.72,18.011-39.337,18.011c-12.536,0-25.054-5.298-36.422-15.341V181.511
	c6.321-5.594,12.962-9.721,19.795-12.275c0.009-0.003,0.017-0.006,0.026-0.009c0.007-0.003,0.014-0.005,0.02-0.007
	c5.417-2.024,10.996-3.051,16.581-3.051C316.126,166.169,329.769,172.441,341.919,184.305z M261.562,56.851l22.535,12.911
	l-10.985,83.075c-5.907,2.789-11.627,6.415-17.107,10.853c-8.258-6.709-16.979-11.518-26.073-14.4L261.562,56.851z M52.25,207.908
	c18.618-26.135,42.676-41.739,64.355-41.739c10.935,0,21.866,4.036,32.039,11.739c-26.499,31.18-42.078,80.683-42.078,135.115
	c0,54.433,15.581,103.932,42.082,135.103c-10.16,7.704-21.092,11.741-32.043,11.741c-21.68,0-45.738-15.603-64.355-41.738
	c-20.746-29.122-32.172-66.449-32.172-105.106C20.078,274.362,31.504,237.032,52.25,207.908z"/>
<path d="M454.484,275.624c-5.454,0.998-9.066,6.227-8.07,11.682c3.12,17.066,3.12,34.368,0,51.428
	c-0.998,5.454,2.615,10.685,8.07,11.682c0.61,0.111,1.218,0.166,1.818,0.166c4.755,0,8.978-3.391,9.865-8.235
	c3.559-19.457,3.559-39.19,0-58.652C465.169,278.24,459.944,274.624,454.484,275.624z"/>
<path d="M448.419,265.036c12.919,0,12.941-20.078,0-20.078C435.499,244.957,435.477,265.036,448.419,265.036z"/>
<g>
</g>
<g>
</g>
<g>
</g>
<g>
</g>
<g>
</g>
<g>
</g>
<g>
</g>
<g>
</g>
<g>
</g>
<g>
</g>
<g>
</g>
<g>
</g>
<g>
</g>
<g>
</g>
<g>
</g>
</svg>
