<svg id="Capa_1" enable-background="new 0 0 512 512" height="512" viewBox="0 0 512 512" width="512" xmlns="http://www.w3.org/2000/svg"><g><g><path d="m441.791 286.46h-214.036v-5.043c0-56.41 45.729-102.139 102.139-102.139h9.757c56.41 0 102.139 45.729 102.139 102.139v5.043z" fill="#fec165"/><path d="m169.792 79.859 315.02-6.923c2.24-.049 4.082 1.753 4.082 3.993v25.689c0 2.206-1.788 3.994-3.994 3.994h-314.815c-7.388 0-13.378-5.989-13.378-13.378.001-7.275 5.813-13.216 13.085-13.375z" fill="#5a5a5a"/><path d="m169.792 19.933 315.02-6.923c2.24-.049 4.082 1.753 4.082 3.993v25.689c0 2.206-1.788 3.994-3.994 3.994h-314.815c-7.388 0-13.378-5.989-13.378-13.378.001-7.274 5.813-13.215 13.085-13.375z" fill="#5a5a5a"/><path d="m484.812 72.935-24.222.532v17.828c0 2.206-1.788 3.994-3.994 3.994h-299.714c.991 6.409 6.516 11.321 13.203 11.321h314.814c2.206 0 3.994-1.788 3.994-3.994v-25.688c0-2.24-1.842-4.042-4.081-3.993z" fill="#444"/><path d="m484.812 13.01-24.222.532v17.828c0 2.206-1.788 3.994-3.994 3.994h-299.714c.991 6.41 6.516 11.322 13.203 11.322h314.814c2.206 0 3.994-1.788 3.994-3.994v-25.689c0-2.24-1.842-4.042-4.081-3.993z" fill="#444"/><path d="m149.412 252.267v-229.79c0-8.272 6.705-14.977 14.977-14.977 8.272 0 14.977 6.705 14.977 14.977v229.79c0 8.272-6.705 14.977-14.977 14.977-8.272 0-14.977-6.705-14.977-14.977z" fill="#fece85"/><path d="m179.366 252.267v-229.79c0-8.272 6.705-14.977 14.977-14.977 8.272 0 14.977 6.705 14.977 14.977v229.79c0 8.272-6.705 14.977-14.977 14.977-8.272 0-14.977-6.705-14.977-14.977z" fill="#fec165"/><path d="m209.32 252.267v-229.79c0-8.272 6.705-14.977 14.977-14.977 8.272 0 14.977 6.705 14.977 14.977v229.79c0 8.272-6.705 14.977-14.977 14.977-8.272 0-14.977-6.705-14.977-14.977z" fill="#fece85"/><path d="m224.297 7.5c-3.154 0-6.077.98-8.491 2.645 3.916 2.701 6.486 7.215 6.486 12.332v229.79c0 5.117-2.57 9.63-6.486 12.331 2.414 1.665 5.337 2.646 8.491 2.646 8.272 0 14.977-6.706 14.977-14.977v-229.79c0-8.271-6.706-14.977-14.977-14.977z" fill="#fec165"/><g><path d="m264.482 218.259c-2.109-6.496-18.116-5.965-22.051-11.372-3.975-5.461 1.449-20.509-4.012-24.484-4.422-3.218-13.665 2.733-20.44 3.855 1.37 6.103-1.318 16.332 1.809 20.628 3.935 5.407 19.942 4.876 22.051 11.372 2.035 6.268-11.161 15.22-11.161 22.166s13.196 15.899 11.161 22.167c-2.109 6.496-18.117 5.965-22.052 11.372-3.127 4.297-.44 14.524-1.809 20.628 6.775 1.123 16.018 7.074 20.44 3.856 5.461-3.974.038-19.023 4.012-24.484 3.935-5.407 19.942-4.876 22.052-11.372 2.035-6.268-11.161-15.22-11.161-22.167 0-6.945 13.196-15.897 11.161-22.165z" fill="#f9c6c6"/></g><path d="m40.953 254.929c-14.503-54.127 3.668-106.024 40.587-115.916s78.604 25.966 93.107 80.093c10.963 40.916-8.768 81.91-44.208 92.924-.776.251-1.558.49-2.351.703s-1.59.397-2.387.567c-36.199 8.181-73.784-17.455-84.748-58.371z" fill="#dff6fd"/><ellipse cx="109.412" cy="243.032" fill="#fea613" rx="34.431" ry="38.827" transform="matrix(.966 -.259 .259 .966 -59.173 36.599)"/><path d="m174.648 219.106c-14.503-54.126-56.189-89.985-93.108-80.093-.009.002-.017.005-.025.007 28.959 7.289 56.442 38.219 67.66 80.086 10.963 40.916-8.768 81.91-44.208 92.924-.776.251-1.558.49-2.351.703-.794.213-1.59.397-2.388.567-.318.072-.636.121-.954.188 8.619 1.78 17.563 1.816 26.427-.188.798-.17 1.594-.354 2.387-.567s1.575-.451 2.351-.703c35.44-11.014 55.172-52.008 44.209-92.924z" fill="#c8effe"/><path d="m196.256 168.706c6.946 0 11.373 15.396 17.641 17.431 6.496 2.109 19.114-7.67 24.521-3.735 5.461 3.975.038 19.023 4.012 24.484 3.935 5.407 19.942 4.876 22.051 11.372 2.035 6.268-11.161 15.22-11.161 22.166s13.196 15.899 11.161 22.167c-2.109 6.496-18.116 5.965-22.052 11.372-3.975 5.461 1.449 20.509-4.012 24.484-5.407 3.935-18.025-5.844-24.521-3.735-6.268 2.035-10.695 17.431-17.641 17.431s-11.373-15.396-17.641-17.431c-6.496-2.109-19.114 7.67-24.521 3.735-5.461-3.975-.038-19.023-4.012-24.484-3.935-5.407-19.942-4.876-22.051-11.372-2.035-6.268 11.161-15.22 11.161-22.166s-13.196-15.899-11.161-22.167c2.109-6.496 18.116-5.965 22.052-11.372 3.975-5.461-1.449-20.509 4.012-24.484 5.407-3.935 18.025 5.844 24.521 3.735 6.268-2.035 10.695-17.431 17.641-17.431z" fill="#fdd5d5"/><path d="m332.802 495.931v-19.087c54.947-20.48 98.067-66.012 114.752-123.487h-414.546c16.972 58.458 60.768 103.377 114.736 123.487v19.087c0 4.732 3.837 8.569 8.569 8.569h167.92c4.732 0 8.569-3.837 8.569-8.569z" fill="#5a5a5a"/><path d="m23.19 289.428v-26.789c0-2.018 1.636-3.653 3.653-3.653h426.86c2.018 0 3.653 1.636 3.653 3.653v26.789z" fill="#5a5a5a"/><path d="m410.759 353.356c-16.685 57.476-59.805 103.008-114.752 123.487v19.088c0 4.732-3.836 8.569-8.569 8.569h36.794c4.733 0 8.569-3.837 8.569-8.569v-19.088c54.947-20.479 98.067-66.012 114.752-123.487z" fill="#444"/><path d="m453.703 258.986h-36.794c2.018 0 3.653 1.636 3.653 3.653v26.789h36.794v-26.789c0-2.017-1.636-3.653-3.653-3.653z" fill="#444"/><path d="m33.008 353.356h414.545c3.017-10.395 5.174-21.177 6.376-32.276l3.426-31.652h-434.165l3.426 31.652c1.202 11.101 3.374 21.88 6.392 32.276z" fill="#e94444"/><path d="m420.562 289.428-3.427 31.652c-1.201 11.098-3.358 21.881-6.376 32.276h36.794c3.017-10.395 5.174-21.178 6.376-32.276l3.427-31.652z" fill="#d83131"/></g><path d="m484.9 54.186c6.337 0 11.494-5.156 11.494-11.494v-25.689c0-3.119-1.228-6.037-3.458-8.218-2.229-2.18-5.167-3.332-8.289-3.273l-241.143 5.3c-3.95-6.478-11.081-10.812-19.207-10.812-5.749 0-10.998 2.172-14.977 5.735-3.979-3.563-9.228-5.735-14.977-5.735s-10.998 2.172-14.977 5.735c-3.979-3.563-9.228-5.735-14.977-5.735-12.394 0-22.477 10.083-22.477 22.478v127.328c-17.533-15.296-39.939-24.035-62.312-18.037-11.446 3.066-21.449 9.56-29.73 19.3-2.683 3.155-2.3 7.889.855 10.572 3.156 2.682 7.889 2.3 10.572-.855 23.63-27.793 60.815-17.768 86.232 17.562-5.868 6.991-2.442 18.893-3.582 24.068-1.882 1.114-7.301 2.32-11.126 3.61-10.368-8.089-23.275-10.99-35.399-7.741-21.61 5.791-34.283 29.331-29.091 53.202h-20.527c-2.882-11.236-4.343-22.536-4.343-33.611 0-10.231 1.247-19.981 3.706-28.979 1.092-3.995-1.261-8.12-5.257-9.212-3.996-1.096-8.12 1.262-9.212 5.257-2.812 10.286-4.237 21.367-4.237 32.934 0 11.102 1.32 22.384 3.913 33.611h-5.531c-6.15 0-11.153 5.003-11.153 11.153 0 37.105-.937 18.543 3.47 59.248 1.222 11.288 3.458 22.579 6.646 33.56 16.624 57.266 59.209 104.212 114.455 126.529v13.954c0 8.86 7.208 16.069 16.069 16.069h167.919c8.861 0 16.069-7.209 16.069-16.069v-13.953c13.545-5.47 26.486-12.479 38.531-20.877 3.398-2.369 4.232-7.044 1.863-10.441-2.369-3.398-7.044-4.233-10.441-1.863-32.847 22.899-44.953 17.97-44.953 28.048 0 20.084.407 20.156-1.069 20.156-179.047 0-168.989.521-168.989-1.069v-19.087c0-3.132-1.946-5.934-4.881-7.027-50.028-18.646-89.436-58.963-107.086-108.96h393.976c-8.734 24.748-22.907 47.5-41.361 66.281-2.903 2.955-2.861 7.703.093 10.606s7.703 2.861 10.606-.093c22.549-22.949 39.199-51.374 48.15-82.204 3.17-10.923 5.401-22.214 6.629-33.56 4.438-40.995 3.47-22.411 3.47-59.248 0-6.15-5.003-11.153-11.153-11.153h-8.58c-6.133-21.586-18.922-41.049-36.487-55.287-19.429-15.748-43.928-24.421-68.983-24.421h-9.757c-29.007 0-56.971 11.646-77.458 32.093-1.546-.469-3.102-.998-3.879-1.46-.334-1.423-.203-4.836-.123-6.947.176-4.583.372-9.95-1.661-14.295v-67.06h238.125c6.337 0 11.494-5.156 11.494-11.494v-25.688c0-3.118-1.228-6.037-3.457-8.217-2.229-2.181-5.197-3.351-8.289-3.273l-237.873 5.227v-16.479zm-238.115-28.443 234.608-5.156v18.599h-234.615c.01-7.243.021-10.714.007-13.443zm9.66 195.052c-5.523 8.612-16.581 16.057-6.406 30.691h-19.321c7.288-12.432 5.607-28.711-5.047-39.366-15.085-15.084-39.632-15.084-54.717 0-11.353 11.353-14.9 26.824-13.211 39.366h-15.268c10.141-14.599-.819-21.978-6.405-30.696 6.41-2.572 16.647-3.191 20.926-10.835.028-.05.057-.099.084-.15 3.423-6.302 1.529-14.871 1.953-20.581 5.803 1.424 14.348 6.491 21.901 4.047 5.341-1.734 8.612-6.64 11.775-11.384.97-1.454 2.422-3.632 3.549-4.928 1.127 1.296 2.58 3.474 3.55 4.928 3.207 4.81 6.426 9.601 11.775 11.384 7.468 2.428 15.774-2.493 21.908-4.053.429 6.454-1.782 15.68 2.877 22.081 4.632 6.368 14.132 7.104 20.077 9.496zm52.616 30.691c9.817-12.227 23.004-11.117 28.151-11.117 9.282 0 17.731 4.215 23.273 11.117zm68.92 0c-7.247-15.827-22.989-26.117-40.768-26.117h-4.879c-17.779 0-33.522 10.291-40.768 26.117h-21.901c11.217-22.681 34.278-37.311 60.23-37.311h9.757c25.952 0 49.013 14.63 60.23 37.311zm-205.041 0c-1.731-7.964-.261-19.878 8.62-28.759 9.237-9.237 24.267-9.236 33.503-.001 6.805 6.806 6.805 17.878 0 24.682-2.354 2.354-5.483 3.65-8.812 3.65s-6.458-1.296-8.812-3.65c-1.6-1.6-2.481-3.727-2.481-5.988s.881-4.389 2.481-5.988c2.929-2.929 2.929-7.678 0-10.606-2.93-2.93-7.678-2.929-10.607-.001-4.433 4.433-6.875 10.327-6.875 16.596 0 3.54.78 6.961 2.256 10.066h-9.273zm51.357-236.486c6.414 0 7.509 6.712 7.243 5.654.352 1.397.234-7.219.234 153.622-5.332.909-11.255 3.898-14.954 4.584v-156.382c0-4.124 3.354-7.478 7.477-7.478zm-29.954 0c4.123 0 7.477 3.354 7.477 7.478v140.023c-4.672-2.289-10.232-1.646-14.954 2.664v-142.687c0-4.124 3.354-7.478 7.477-7.478zm-29.954 0c4.123 0 7.477 3.354 7.477 7.478v155.271c-2.564-.89-5.721-2.151-8.561-2.913-2.04-3.154-4.178-6.156-6.393-9.016v-143.342c0-4.124 3.354-7.478 7.477-7.478zm-80.99 235.002c-4.471-16.685 3.561-33.386 17.905-37.229 6.518-1.744 13.5-.549 19.587 3.19-3.328 10.352 8.994 19.597 10.747 24.463-.787 2.187-5.381 7.263-7.883 11.061h-39.924c-.155-.494-.299-.988-.432-1.485zm-44.668 95.854c-2.166-8.424-3.729-17.006-4.658-25.584l-2.527-23.344h417.455c-2.629 24.287-3.206 33.477-7.17 48.928zm411.125-63.927c-8.987 0-413.539 0-419.166 0v-15.442h408.624 10.542zm-119.961-95.151h9.757c40.725 0 77.08 26.704 89.797 64.708h-13.21c-5.584-14.188-15.186-26.826-27.471-36-23.961-17.89-46.73-16.311-58.873-16.311-22.198 0-42.903 8.786-58.273 24.291 1.457-4.898.079-9.886-3.951-13.319 17.151-14.955 39.313-23.369 62.224-23.369zm151.498-106.265v18.597h-234.619v-13.442z"/></g></svg>